<?xml version="1.0" encoding="UTF-8"?>
<svg id="Layer_1" xmlns="http://www.w3.org/2000/svg" version="1.1" viewBox="0 0 610.05 610.05">
  <!-- Generator: Adobe Illustrator 29.1.0, SVG Export Plug-In . SVG Version: 2.1.0 Build 142)  -->
  <defs>
    <style>
      .st0 {
        fill: #c69435;
      }
    </style>
  </defs>
  <path class="st0" d="M264.73,592.9c4.11-4.72,3.12-14.86-2.97-30.4l-27.08-74.97h-92.1l-7.91,20.57c-7.62,19.81-12.27,35.73-13.94,47.77-1.68,12.04-.99,21.26,2.06,27.66,3.04,6.4,7.92,10.82,14.63,13.26,6.7,2.44,14.63,3.81,23.77,4.12v9.14h74.05v-9.14c15.54-.61,25.37-3.27,29.48-8Z"/>
  <polygon class="st0" points="146.1 478.39 231.38 478.39 190.07 364.01 146.1 478.39"/>
  <path class="st0" d="M0,0v610.05h42.23v-9.14c30.89-1.21,37.82-5.71,44.68-13.49,6.86-7.77,13.94-21.1,21.26-40l101.48-261.02c7.31.61,15.31.91,24,.91s16.69-.3,24-.91l110.63,285.25c4.26,10.36,8.84,17.76,13.71,22.17,4.44,4.03,8.51,6.35,33.89,6.96-6.39-1.63-12.72-5.97-18.98-13.06-6.86-7.77-13.94-21.1-21.26-40l-60.79-156.36c3.49-10.46,7.98-20.37,13.47-29.7,15.09-25.6,35.96-45.56,62.63-59.88,26.66-14.32,57.37-21.49,92.11-21.49,21.33,0,38.85,2.9,52.57,8.69,13.71,5.79,25.75,12.8,36.11,21.03,3.35,2.74,6.4,4.11,9.14,4.11,5.79,0,9.6-9.14,11.43-27.43l9.03.32-.35,113.97h-10.51c-2.14-21.94-5.87-40.3-11.2-55.08-5.33-14.78-15.62-27.35-30.86-37.71-6.4-4.26-13.87-7.61-22.4-10.06-8.54-2.44-16.77-3.66-24.69-3.66-17.68,0-32.31,4.8-43.88,14.4-11.59,9.6-20.8,22.1-27.66,37.48-6.86,15.39-11.73,32.16-14.63,50.28-2.9,18.14-4.34,35.74-4.34,52.8,0,54.86,6.7,94.93,20.11,120.22,13.41,25.3,31.23,37.94,53.48,37.94,4.87,0,9.14-.46,12.8-1.37,3.66-.91,6.86-2.29,9.6-4.11,3.35-2.44,5.79-5.49,7.31-9.14,1.52-3.66,2.29-8.23,2.29-13.71v-45.71c0-14.93-1.14-26.06-3.43-33.37-2.29-7.31-6.78-12.34-13.49-15.09-6.71-2.74-16.46-4.26-29.26-4.57v-9.14c7.01.31,15.54.54,25.6.69,10.06.16,20.57.31,31.54.46,10.97.16,21.03.23,30.17.23,14.63,0,28.11-.15,40.46-.46,4.3-.1,8.3-.21,12.02-.32V0H0Z"/>
  <path class="st0" d="M585.91,584.28c-2.44,0-5.87.61-10.29,1.83-4.42,1.22-11.36,4.12-20.8,8.69-11.83,5.77-24.34,10.85-37.53,15.25h82.76c-.33-5.1-1.54-10.63-3.63-16.62-2.14-6.09-5.64-9.14-10.51-9.14Z"/>
</svg>