<?xml version="1.0" encoding="UTF-8"?>
<svg id="Layer_1" xmlns="http://www.w3.org/2000/svg" version="1.1" viewBox="0 0 669 69.9">
  <!-- Generator: Adobe Illustrator 29.3.1, SVG Export Plug-In . SVG Version: 2.1.0 Build 151)  -->
  <defs>
    <style>
      .st0 {
        fill: #4285f4;
      }

      .st1 {
        fill: #fbbc05;
      }

      .st2 {
        fill: #34a853;
      }

      .st3 {
        fill: #ea4335;
      }

      .st4 {
        fill: #005128;
      }

      .st5 {
        fill: #191919;
      }

      .st6 {
        fill: #005f86;
      }

      .st7 {
        fill: #00b67a;
      }
    </style>
  </defs>
  <g>
    <g>
      <path class="st6" d="M130.4,25c0-1-.8-1.8-1.8-1.8h-2.8v3.5h2.8c1,0,1.8-.8,1.8-1.8h0Z"/>
      <path class="st6" d="M152.3,26.6c0-1.9-1.5-3.4-3.4-3.4h-2.1v6.8h2.1c1.9,0,3.4-1.5,3.4-3.4Z"/>
      <path class="st6" d="M96.5,42.8c0-.7-.5-1.3-1.4-1.3h-2.6v2.6h2.6c.8,0,1.4-.5,1.4-1.3h0Z"/>
      <path class="st6" d="M95.7,46.2h-3.2v2.8h3.2c.9,0,1.5-.5,1.5-1.4s-.5-1.4-1.5-1.4Z"/>
      <path class="st6" d="M185,23.2h-2.1v6.8h2.1c1.9,0,3.4-1.5,3.4-3.4s-1.5-3.4-3.4-3.4Z"/>
      <path class="st6" d="M187.7,0H27.1c-5.8,0-10.5,4.7-10.5,10.5v47.7c0,5.8,4.7,10.5,10.5,10.5h161.1c2.5,0,4.8-1.1,6.5-2.7l.7-.7c1.7-1.9,2.7-4.3,2.7-7h0V10.5c0-5.8-4.7-10.5-10.5-10.5h.1ZM78.5,67.7H27.1c-5.3,0-9.5-4.3-9.5-9.5V10.5c0-5.3,4.3-9.5,9.5-9.5h51.4v66.7ZM156.3,20.8h2.4v11.7h-2.4v-11.7ZM144.4,20.8h4.5c3.2,0,5.8,2.6,5.8,5.8s-2.6,5.8-5.8,5.8h-4.5v-11.7h0ZM134.3,30.1v-9.2h8.6v2.4h-6.1v2.4h5.5v2.2h-5.5v2.3h6.1v2.4h-8.6v-2.4h0ZM94,20.8h2.2l4.9,11.7h-2.4l-1-2.4h-5.2l-1,2.4h-2.4l4.9-11.7ZM96.3,51.1h-6.3v-11.7h5.2c2.5,0,3.8,1.4,3.8,3s-.9,2.5-2,2.7c1.8,0,2.7,1.4,2.7,2.9s-1.2,3.2-3.4,3.2h0ZM110.7,46.3c0,2.8-2.2,5-5,5h0c-2.8,0-5-2.2-5-5v-6.9h2.4v6.9c0,1.4,1.1,2.6,2.6,2.6h0c1.4,0,2.6-1.1,2.6-2.6v-6.9h2.4v6.9ZM106.7,30.2c1.2,0,2.3-.6,2.9-1.5l1.7,1.7c-1.1,1.4-2.8,2.2-4.7,2.2-3.3,0-6-2.7-6-6s2.7-6,6-6,3.6.9,4.7,2.2l-1.7,1.7c-.7-.9-1.7-1.5-2.9-1.5-2,0-3.6,1.6-3.6,3.6s1.6,3.6,3.6,3.6h0ZM116.3,51.1c-2.2,0-3.7-.7-4.8-1.8l1.3-1.8c.8.8,2,1.5,3.6,1.5s2-.6,2-1.3-1-1.1-2.3-1.4c-1.8-.4-4.2-.9-4.2-3.5s1.6-3.4,4.3-3.4,3.3.5,4.4,1.6l-1.3,1.8c-.9-.8-2.1-1.2-3.2-1.2s-1.7.5-1.7,1.2.9,1,2.2,1.3c1.9.4,4.2,1,4.2,3.5s-1.5,3.6-4.5,3.6h0ZM117.7,32.7c-3.3,0-6-2.7-6-6s2.7-6,6-6,3.6.9,4.7,2.2l-1.7,1.7c-.7-.9-1.7-1.5-2.9-1.5-2,0-3.6,1.6-3.6,3.6s1.6,3.6,3.6,3.6,2.3-.6,2.9-1.5l1.7,1.7c-1.1,1.4-2.8,2.2-4.7,2.2h0ZM124.6,51.1h-2.4v-11.7h2.4v11.7ZM125.8,32.5h-2.4v-11.7h5.6c2.2,0,4,1.8,4,4s-1,3.1-2.4,3.7l2.8,4h-2.9l-2.6-3.7h-2v3.7h-.1ZM136.7,51.1h-2.4l-5.3-7.3v7.3h-2.4v-11.7h2.4l5.3,7.4v-7.4h2.4v11.7ZM147.1,41.8h-6.1v2.3h5.5v2.2h-5.5v2.3h6.1v2.4h-8.6v-11.7h8.6v2.4h0ZM152.7,51.1c-2.2,0-3.7-.7-4.8-1.8l1.3-1.8c.8.8,2,1.5,3.6,1.5s2-.6,2-1.3-1-1.1-2.3-1.4c-1.9-.4-4.2-.9-4.2-3.5s1.6-3.4,4.3-3.4,3.3.5,4.4,1.6l-1.3,1.8c-.9-.8-2.1-1.2-3.2-1.2s-1.7.5-1.7,1.2.9,1,2.2,1.3c1.9.4,4.2,1,4.2,3.5s-1.5,3.6-4.5,3.6h0ZM162,51.1c-2.2,0-3.7-.7-4.8-1.8l1.3-1.8c.8.8,2,1.5,3.6,1.5s2-.6,2-1.3-1-1.1-2.3-1.4c-1.9-.4-4.2-.9-4.2-3.5s1.6-3.4,4.3-3.4,3.3.5,4.4,1.6l-1.3,1.8c-.9-.8-2.1-1.2-3.2-1.2s-1.7.5-1.7,1.2.9,1,2.2,1.3c1.9.4,4.2,1,4.2,3.5s-1.5,3.6-4.5,3.6h0ZM169.3,23.2h-3.4v9.2h-2.4v-9.2h-3.4v-2.4h9.3v2.4h-.1ZM178.9,23.2h-6.1v2.4h5.5v2.2h-5.5v2.3h6.1v2.4h-8.6v-11.7h8.6v2.4h0ZM185,32.5h-4.5v-11.7h4.5c3.2,0,5.8,2.6,5.8,5.8s-2.6,5.8-5.8,5.8h0Z"/>
      <polygon class="st6" points="95.1 23.9 93.4 27.8 96.7 27.8 95.1 23.9"/>
    </g>
    <g>
      <path class="st6" d="M30.4,63.4v-13.1h5.8c2.8,0,4.3,1.6,4.3,3.3s-1,2.7-2.2,3c2,0,3,1.6,3,3.2s-1.3,3.5-3.8,3.5h-7.1,0ZM33.2,55.6h3c.9,0,1.5-.6,1.5-1.5s-.6-1.4-1.5-1.4h-3v2.9ZM33.2,61h3.6c1.1,0,1.7-.6,1.7-1.5s-.6-1.5-1.7-1.5h-3.6v3.1h0Z"/>
      <path class="st6" d="M42.8,63.4v-13.1h5.8c2.8,0,4.3,1.6,4.3,3.3s-1,2.7-2.2,3c2,0,3,1.6,3,3.2s-1.3,3.5-3.8,3.5h-7.1ZM45.6,55.6h3c.9,0,1.5-.6,1.5-1.5s-.6-1.4-1.5-1.4h-3v2.9ZM45.6,61h3.6c1.1,0,1.7-.6,1.7-1.5s-.6-1.5-1.7-1.5h-3.6v3.1h0Z"/>
      <path class="st6" d="M55.2,63.4v-13.1h5.8c2.8,0,4.3,1.6,4.3,3.3s-1,2.7-2.2,3c2.1,0,3,1.6,3,3.2s-1.3,3.5-3.8,3.5h-7.1ZM58,55.6h3c.9,0,1.5-.6,1.5-1.5s-.6-1.4-1.5-1.4h-3v2.9ZM58,61h3.6c1.1,0,1.7-.6,1.7-1.5s-.6-1.5-1.7-1.5h-3.6v3.1h0Z"/>
      <path class="st6" d="M66.9,60.5c0-1.6,1.3-2.9,2.9-2.9s2.9,1.3,2.9,2.9-1.3,2.9-2.9,2.9-2.9-1.3-2.9-2.9ZM67.3,60.5c0,1.4,1.1,2.5,2.5,2.5s2.5-1.1,2.5-2.5-1.1-2.5-2.5-2.5-2.5,1.1-2.5,2.5ZM70.6,62.2l-.9-1.3h-.6v1.3h-.5v-3.4h1.4c.6,0,1.1.4,1.1,1s-.7,1-.9,1l.9,1.3h-.6,0ZM69.2,59.3v1.2h.9c.3,0,.6-.2.6-.6s-.3-.6-.6-.6c0,0-.9,0-.9,0Z"/>
      <polygon class="st6" points="60.3 44.1 59.3 41.5 37.3 41.5 36.3 44.1 42.3 44.1 43.5 48 53.1 48 54.3 44.1 60.3 44.1"/>
      <path class="st6" d="M57.3,14.9l-8-5.8c-1.1-.8-1.4-2.4-.6-3.5l-.7-.5-4.3,6c-1,1.4-1.5,3-1.4,4.6,0,2.3,1.1,4.6,3.1,6l8,5.8c1.1.8.7,3.3-.2,4.4l.7.5,2.2-3,2.9-4c1-1.4,1.5-3,1.4-4.6,0-2.3-1.1-4.6-3.1-6h0Z"/>
      <path class="st6" d="M49.8,29.3l-5.2-3.7c-.7-.5-.9-1.5-.4-2.2l-.5-.3-2.8,3.9c-.7.9-1,1.9-.9,3,0,1.5.7,3,2,3.9l5.2,3.7c.7.5.4,2.2,0,2.9l.5.3,1.4-1.9,1.9-2.6c.7-.9,1-1.9.9-3,0-1.5-.7-3-2-3.9h-.1Z"/>
    </g>
  </g>
  <g>
    <path class="st5" d="M300.2,22.3h21.6v4h-8.5v22.6h-4.7v-22.6h-8.5v-4h.1ZM320.9,29.7h4v3.7h0c.1-.5.4-1,.7-1.5s.8-1,1.3-1.4,1.1-.7,1.7-1c.6-.2,1.3-.4,1.9-.4h1.6v4.1c-.3,0-.6,0-.9,0s-.6,0-.9,0c-.7,0-1.4.2-2,.4s-1.2.7-1.7,1.3-.9,1.2-1.1,2.1-.4,1.8-.4,2.8v9.2h-4.3v-19.3h0ZM351.7,49h-4.2v-2.7h0c-.5,1-1.3,1.8-2.3,2.3-1,.6-2.1.9-3.2.9-2.5,0-4.4-.6-5.5-1.9s-1.7-3.2-1.7-5.7v-12.3h4.3v11.8c0,1.7.3,2.9,1,3.6.6.7,1.6,1,2.7,1s1.6,0,2.2-.4,1.1-.6,1.5-1.1.6-1,.8-1.7c.2-.6.2-1.3.2-2.1v-11.2h4.3v19.3h0v.2ZM359,42.8c.1,1.2.6,2.1,1.4,2.6s1.8.8,3,.8h1.4c.5,0,1-.2,1.4-.4.5-.2.8-.4,1.1-.8.3-.3.4-.8.4-1.3s-.2-1-.6-1.3c-.4-.4-.9-.6-1.4-.8-.6-.2-1.2-.4-2-.5-.8-.2-1.5-.3-2.3-.5s-1.6-.4-2.3-.6c-.7-.2-1.4-.6-2-1s-1-1-1.4-1.6c-.4-.7-.5-1.5-.5-2.5s.3-1.9.8-2.6c.5-.7,1.2-1.3,1.9-1.7.8-.4,1.7-.7,2.6-.9,1-.2,1.9-.3,2.8-.3s2,.1,2.9.3,1.7.5,2.5,1c.7.5,1.3,1.1,1.8,1.8.5.8.8,1.7.9,2.8h-4.4c-.2-1-.7-1.7-1.4-2-.7-.4-1.6-.5-2.5-.5h-1.1c-.4,0-.8.2-1.2.3-.4,0-.7.3-.9.6-.2.3-.4.6-.4,1s.2.9.5,1.3.8.6,1.4.8,1.2.4,2,.5c.8.2,1.5.3,2.3.5s1.5.4,2.3.6c.8.2,1.4.6,2,1s1,1,1.4,1.6.5,1.5.5,2.4-.3,2.1-.8,2.9c-.5.8-1.2,1.5-2,1.9-.8.5-1.8.9-2.8,1.1-1,.2-2,.3-3,.3s-2.4,0-3.4-.4-1.9-.7-2.7-1.2c-.8-.6-1.4-1.3-1.8-2.1s-.7-1.8-.7-3h4.3ZM373,29.7h3.2v-5.8h4.3v5.8h3.8v3.2h-3.8v11.5c0,.3.1.6.3.8s.3.4.6.5c.3,0,.6.2,1.1.2h.9c.3,0,.6,0,.9,0v3.3c-.5,0-.9,0-1.4.2h-1.4c-1.1,0-2,0-2.7-.3s-1.2-.5-1.6-.9-.6-.9-.8-1.5c-.1-.6-.2-1.3-.2-2.1v-11.4h-3.2v-3.2h0v-.2ZM387.4,29.7h4v2.6h0c.6-1.1,1.4-1.9,2.5-2.4s2.2-.7,3.5-.7,2.8.3,4,.8c1.1.5,2.1,1.3,2.8,2.2.7.9,1.3,2,1.7,3.3.4,1.2.6,2.6.6,4s-.2,2.6-.5,3.8-.9,2.3-1.5,3.2-1.5,1.7-2.6,2.2-2.3.8-3.7.8-1.2,0-1.9-.2c-.6,0-1.2-.3-1.8-.5-.6-.2-1.1-.6-1.6-1s-.9-.8-1.2-1.4h0v9.6h-4.3v-26.5h0v.2ZM402.2,39.3c0-.9-.1-1.7-.3-2.5s-.6-1.5-1-2.2c-.5-.6-1-1.2-1.7-1.5-.7-.4-1.5-.6-2.3-.6-1.8,0-3.1.6-4,1.9-.9,1.2-1.4,2.9-1.4,5s.1,1.9.4,2.7c.2.8.6,1.5,1.1,2.2.5.6,1,1.1,1.7,1.4.7.4,1.4.5,2.3.5s1.8-.2,2.5-.6c.7-.4,1.2-.9,1.7-1.5.4-.6.8-1.4.9-2.2.2-.8.3-1.6.3-2.5h-.2ZM409.8,22.3h4.3v4h-4.3v-4ZM409.8,29.7h4.3v19.3h-4.3v-19.3h0ZM417.8,22.3h4.3v26.7h-4.3v-26.7h0ZM435.1,49.5c-1.5,0-2.9-.3-4.1-.8s-2.2-1.2-3.1-2.1c-.8-.9-1.5-2-1.9-3.2s-.7-2.6-.7-4.1.2-2.8.7-4.1,1.1-2.3,1.9-3.2c.8-.9,1.9-1.6,3.1-2.1s2.6-.8,4.1-.8,2.9.3,4.1.8,2.2,1.2,3.1,2.1c.8.9,1.5,2,1.9,3.2s.7,2.6.7,4.1-.2,2.9-.7,4.1-1.1,2.3-1.9,3.2-1.9,1.6-3.1,2.1-2.6.8-4.1.8h0ZM435.1,46.2c.9,0,1.8-.2,2.5-.6.7-.4,1.3-.9,1.7-1.6.5-.6.8-1.4,1-2.2s.3-1.6.3-2.5-.1-1.6-.3-2.5-.5-1.5-1-2.2-1-1.2-1.7-1.5c-.7-.4-1.5-.6-2.5-.6s-1.8.2-2.5.6c-.7.4-1.3.9-1.7,1.5-.5.6-.8,1.4-1,2.2s-.3,1.6-.3,2.5.1,1.7.3,2.5c.2.8.5,1.5,1,2.2s1,1.2,1.7,1.6c.7.4,1.5.6,2.5.6h0ZM446.1,29.7h3.2v-5.8h4.3v5.8h3.8v3.2h-3.8v11.5c0,.3.1.6.3.8.1.2.3.4.6.5.3,0,.6.2,1.1.2h.9c.3,0,.6,0,.9,0v3.3c-.5,0-.9,0-1.4.2h-1.4c-1.1,0-2,0-2.7-.3s-1.2-.5-1.6-.9-.6-.9-.8-1.5c-.1-.6-.2-1.3-.2-2.1v-11.4h-3.2v-3.2h0v-.2Z"/>
    <path class="st7" d="M295.2,22.3h-19.5l-6-18.6-6,18.6h-19.5l15.8,11.5-6,18.5,15.8-11.5,15.8,11.5-6-18.5,15.8-11.5h-.2Z"/>
    <path class="st4" d="M280.8,38l-1.4-4.2-9.8,7.1,11.1-2.9h0Z"/>
  </g>
  <g>
    <g>
      <path class="st0" d="M521.3,22.8v4.8h11.5c-.3,2.7-1.3,4.7-2.6,6.1-1.7,1.7-4.3,3.5-8.9,3.5-7.1,0-12.7-5.7-12.7-12.9s5.6-12.9,12.7-12.9,6.6,1.5,8.7,3.5l3.4-3.4c-2.9-2.8-6.7-4.9-12.1-4.9-9.8,0-17.9,7.9-17.9,17.7s8.2,17.7,17.9,17.7,9.2-1.7,12.3-5c3.2-3.2,4.2-7.7,4.2-11.3s0-2.2-.3-3h-16.3,0Z"/>
      <path class="st3" d="M552.3,18.9c-6.3,0-11.5,4.8-11.5,11.4s5.2,11.4,11.5,11.4,11.5-4.8,11.5-11.4-5.2-11.4-11.5-11.4ZM552.3,37.2c-3.5,0-6.4-2.8-6.4-6.9s3-6.9,6.4-6.9,6.4,2.8,6.4,6.9-3,6.9-6.4,6.9Z"/>
      <path class="st0" d="M608.4,21.5h-.2c-1.1-1.3-3.3-2.5-6-2.5-5.7,0-10.7,5-10.7,11.4s5,11.4,10.7,11.4,4.9-1.2,6-2.6h.2v1.6c0,4.4-2.3,6.7-6.1,6.7s-5-2.2-5.8-4.1l-4.4,1.8c1.3,3,4.6,6.7,10.1,6.7s10.8-3.5,10.8-11.9v-20.5h-4.8v2h.2ZM602.7,37.2c-3.5,0-6.1-3-6.1-6.9s2.6-6.9,6.1-6.9,6.1,3,6.1,7-2.7,6.9-6.1,6.9h0Z"/>
      <path class="st1" d="M577.8,18.9c-6.3,0-11.5,4.8-11.5,11.4s5.2,11.4,11.5,11.4,11.5-4.8,11.5-11.4-5.2-11.4-11.5-11.4ZM577.8,37.2c-3.5,0-6.4-2.8-6.4-6.9s3-6.9,6.4-6.9,6.4,2.8,6.4,6.9-3,6.9-6.4,6.9Z"/>
      <path class="st2" d="M617.1,7.2h4.9v34.5h-4.9V7.2Z"/>
      <path class="st3" d="M637.3,37.2c-2.5,0-4.4-1.2-5.5-3.5l15.3-6.3-.5-1.3c-.9-2.5-3.8-7.3-9.8-7.3s-10.8,4.6-10.8,11.4,4.8,11.4,11.3,11.4,8.2-3.2,9.5-5l-3.9-2.6c-1.3,1.9-3.1,3.1-5.6,3.1h0ZM636.9,23.2c2,0,3.8,1,4.3,2.5l-10.3,4.3c0-4.8,3.4-6.8,6-6.8h0Z"/>
    </g>
    <polygon class="st1" points="575.8 67.3 569.9 69.9 570.5 63.5 566.2 58.6 572.6 57.2 575.8 51.6 579.1 57.2 585.5 58.6 581.2 63.5 581.8 69.9 575.8 67.3"/>
    <polygon class="st1" points="555.3 67.3 549.4 69.9 550 63.5 545.7 58.6 552.1 57.2 555.3 51.6 558.6 57.2 565 58.6 560.7 63.5 561.3 69.9 555.3 67.3"/>
    <polygon class="st1" points="534.9 67.3 528.9 69.9 529.5 63.5 525.2 58.6 531.6 57.2 534.9 51.6 538.1 57.2 544.5 58.6 540.2 63.5 540.8 69.9 534.9 67.3"/>
    <polygon class="st1" points="596.3 67.3 590.4 69.9 591 63.5 586.7 58.6 593.1 57.2 596.3 51.6 599.6 57.2 606 58.6 601.6 63.5 602.3 69.9 596.3 67.3"/>
    <polygon class="st1" points="616.8 67.3 610.9 69.9 611.5 63.5 607.2 58.6 613.6 57.2 616.8 51.6 620.1 57.2 626.4 58.6 622.1 63.5 622.8 69.9 616.8 67.3"/>
  </g>
</svg>