<?xml version="1.0" encoding="UTF-8"?>
<svg id="Layer_1" xmlns="http://www.w3.org/2000/svg" version="1.1" viewBox="0 0 611.9 69.9">
  <!-- Generator: Adobe Illustrator 29.3.1, SVG Export Plug-In . SVG Version: 2.1.0 Build 151)  -->
  <defs>
    <style>
      .st0 {
        fill: #ffd800;
      }

      .st1 {
        fill: #41a7de;
      }

      .st2 {
        fill: #c9c5c5;
      }

      .st3 {
        fill: #1e465c;
      }

      .st4 {
        fill: #a8a8a7;
      }

      .st5 {
        fill: #064d69;
      }

      .st6 {
        fill: #fff;
      }

      .st7 {
        fill: #ccc7c6;
      }

      .st8 {
        fill: #505054;
      }
    </style>
  </defs>
  <g>
    <path id="path14" class="st7" d="M62.6,62.7h-31.8c-3.5,0-6.3-2.8-6.3-6.3v-31.8h0v28.6c0,3.5,2.8,6.3,6.3,6.3h31.8c3.5,0,6.3-2.8,6.3-6.3v3.2c0,3.5-2.8,6.3-6.3,6.3"/>
    <path id="path16" class="st6" d="M30.9,56.3c-1.8,0-3.2-1.4-3.2-3.2v-31.8c0-1.8,1.4-3.2,3.2-3.2h31.8c1.8,0,3.2,1.4,3.2,3.2v31.8c0,1.8-1.4,3.2-3.2,3.2h-31.8"/>
    <path id="path18" class="st5" d="M62.6,15h-31.8c-3.5,0-6.3,2.8-6.3,6.4v31.8c0,3.5,2.8,6.3,6.3,6.3h31.8c3.5,0,6.3-2.8,6.3-6.3v-31.8c0-3.5-2.8-6.4-6.3-6.4M62.6,21.4v31.8h-31.8v-31.8h31.8"/>
    <path id="path20" class="st2" d="M47.5,49.9c-1,0-1.9-.5-2.5-1.2l-9.7-12.7c-1.1-1.4-.8-3.4.6-4.5.6-.4,1.2-.6,1.9-.6s1.9.4,2.5,1.2l6.7,8.7c2.7-4.8,7.6-12.5,14.9-19.5h.8v8.3c-8.2,9.1-12.2,18.2-12.2,18.4-.5,1-1.4,1.8-2.5,1.9h-.4"/>
    <path id="path22" class="st2" d="M69,23.5v-2.1c0-1.8-.7-3.4-1.9-4.5,1.3-1,2.7-2,4.1-2.9.5-.3,1.1-.5,1.7-.5,1,0,2.1.5,2.7,1.4,1,1.5.5,3.4-.9,4.4-2,1.3-3.9,2.7-5.7,4.2"/>
    <path id="path24" class="st3" d="M62.6,29.7v-8.3h-.8c1.6-1.5,3.4-3.1,5.2-4.5,1.2,1.1,1.9,2.8,1.9,4.5v2.1c-2.3,2-4.5,4.1-6.3,6.2"/>
    <path id="path26" class="st1" d="M47.5,46.8c-1,0-1.9-.5-2.5-1.2l-9.7-12.7c-1.1-1.4-.8-3.4.6-4.5,1.4-1.1,3.4-.8,4.5.6l6.7,8.7c3.7-6.6,11.6-18.7,24.3-26.9,1.5-.9,3.4-.5,4.4.9,1,1.5.5,3.4-.9,4.4-16.2,10.5-24.2,28.6-24.3,28.8-.5,1-1.4,1.8-2.5,1.9h-.4"/>
    <path id="path28" class="st1" d="M83.2,20.4c1.4-1.6,3.2-2.5,5.6-2.5s2.4.2,3.5.6,1.7,1.1,1.7,1.9,0,.8-.4,1.1c-.3.3-.7.5-1.1.5s-.8-.1-1.1-.4-.6-.6-.8-.9-.5-.6-.8-.9c-.4-.3-.8-.4-1.3-.4-1,0-1.9.5-2.5,1.5s-.9,2.3-.9,3.8.4,3.1,1.2,4.2,2,1.6,3.6,1.6,1.3-.1,1.9-.3,1.1-.4,1.4-.5l.5-.3.4.9s0,.2-.2.3c0,.1-.3.4-.7.7-.3.4-.7.7-1.1.9-.4.3-1,.5-1.7.7s-1.5.3-2.2.3c-2.1,0-3.8-.7-5.1-2.1-1.2-1.4-1.9-3.1-1.9-5.1s.7-4,2.1-5.6"/>
    <path id="path30" class="st1" d="M100.3,28.3c.2,1,.7,1.9,1.2,2.6s1.3,1.1,2.1,1.1,1.2-.2,1.6-.6.8-1,1-1.6c.2-.7.4-1.3.5-2,0-.7,0-1.3,0-2,0-1.7-.3-3.1-1-4.4s-1.5-1.9-2.7-1.9-1.9.5-2.4,1.7-.8,2.5-.8,4.1,0,2.2.4,3.2h0v-.2ZM96.3,22.2c.5-1.2,1.4-2.2,2.7-3s2.8-1.2,4.6-1.2,4.3.7,5.7,2,2.1,3,2.1,5.2-.7,4.1-2.2,5.8c-1.4,1.7-3.4,2.5-6,2.5s-4.2-.7-5.6-2.1-2.1-3.1-2.1-5.3.3-2.6.8-3.8"/>
    <path id="path32" class="st1" d="M112.5,32c1.2-.1,1.8-.9,1.8-2.1v-8.8c0-.2,0-.5-.3-.7s-.4-.3-.7-.3h-1.3v-1c1.1-.2,2.2-.4,3.3-.7,1.1-.3,1.9-.5,2.4-.7l.8-.3h0c-.2.6-.3,1.8-.5,3.7,1.6-2.1,3.5-3.2,5.7-3.2s2.1.4,2.8,1.1,1,1.8,1,3.3v7.6l-.2,1.7,2.6.3v1c0,0-8,.2-8,.2v-1.1c1-.1,1.5-.9,1.5-2.1v-6.3c0-1.1,0-1.8-.4-2.2-.3-.4-.7-.6-1.4-.6-1.3,0-2.4.4-3.4,1.2v7.9l-.2,1.7,2,.3v1c0,0-7.8.2-7.8.2v-1.1"/>
    <path id="path34" class="st1" d="M131.6,30.1c0-.4.2-.8.3-1.2v-.5h1.2c0,1.2.5,2.1,1.2,2.7s1.5.9,2.3.9,1.1-.2,1.5-.5.6-.7.6-1.3-.2-1.1-.7-1.5-1-.8-1.7-1.2c-.7-.3-1.3-.7-2-1.1s-1.2-.9-1.7-1.6-.7-1.5-.7-2.4c0-1.4.5-2.5,1.5-3.3s2.3-1.2,3.9-1.2,1.2,0,1.9.1,1.3.2,1.8.3l.7.2-.7,3.6h-1.1c0-1.1-.4-1.9-.9-2.3s-1.1-.6-1.7-.6-1,.1-1.4.5c-.3.3-.5.7-.5,1.3s.2.9.5,1.3.8.7,1.2,1c.5.2,1,.5,1.6.8s1.1.6,1.6,1,.9.8,1.2,1.4.5,1.3.5,2.1c0,1.5-.5,2.7-1.6,3.5s-2.4,1.2-4.1,1.2-1.5,0-2.2-.2-1.4-.4-2-.7-.9-.8-.9-1.3,0-.6,0-1"/>
    <path id="path36" class="st1" d="M145.4,22.3v-1.2c0-.3,0-.5-.3-.7s-.4-.3-.7-.3h-1v-1.1c1.6-.3,3-.5,4-.7s1.7-.4,1.9-.4h.3c0-.1,0,0,0,0-.2.6-.3,1.7-.3,3.4v6.5c0,1.1.2,1.9.5,2.3s.8.6,1.3.6,1-.1,1.5-.4c.5-.2,1-.5,1.2-.8l.5-.4v-8.1c0-.3,0-.5-.3-.7s-.4-.3-.7-.3h-.8v-1.1c1.6-.3,2.8-.5,3.9-.7,1-.2,1.6-.3,1.9-.4h.3c0-.1,0,0,0,0-.2.6-.3,1.7-.3,3.4v8.5c0,.8,0,1.4.4,1.5.3.2.7.3,1.4.3h.7v1l-6.6.6h0c.2-.7.2-1.3.2-1.8v-1.4l-.3.4c0,.1-.3.4-.7.8s-.7.7-1.1,1-.9.5-1.5.8-1.2.3-1.8.3c-1.2,0-2.2-.3-2.9-1.1-.7-.7-1.1-1.8-1.1-3.3v-6.7"/>
    <path id="path38" class="st1" d="M162.5,32c1.2-.1,1.8-.9,1.8-2.1v-8.8c0-.2,0-.5-.3-.7s-.4-.3-.7-.3h-1.3v-1c1.1-.2,2.2-.4,3.3-.7,1.1-.3,1.9-.5,2.4-.7l.8-.3h0c-.2.6-.3,1.8-.5,3.7,1.6-2.1,3.4-3.2,5.5-3.2s1.8.2,2.5.8c.7.5,1.1,1.3,1.3,2.3,1.6-2,3.4-3,5.4-3s2.2.4,2.8,1.1c.7.7,1,1.8,1,3.3v7.6l-.2,1.7,2.6.3v1c0,0-7.9.2-7.9.2v-1.1c.9-.1,1.4-.9,1.4-2.1v-6.3c0-1.1,0-1.8-.4-2.2-.3-.4-.7-.6-1.3-.6s-1.5.2-2.2.5-1.1.8-1.1,1.4v7.2l-.2,1.7,2.1.2-.2,1.1-7.2.2v-1.1c.9-.1,1.4-.9,1.4-2.1v-6.3c0-1.1,0-1.8-.4-2.2-.3-.4-.7-.6-1.3-.6-1.2,0-2.3.4-3.3,1.2v7.9l-.2,1.7,2.1.2-.2,1.1-7.7.2v-1.1"/>
    <path id="path40" class="st1" d="M194.3,20.8c-.5.8-.8,1.9-.9,3.1l5.3-.7v-.4c0-.2,0-.5-.2-.9s-.2-.8-.4-1.1c-.2-.3-.4-.6-.7-.9s-.7-.4-1.1-.4c-.8,0-1.5.4-2,1.2h0ZM191.7,20.3c1.4-1.5,3.1-2.3,5.2-2.3s2.9.5,4,1.5,1.7,2.4,1.7,4.3c-1,.3-1.7.5-2.1.6l-6.8,1-.3.4c.2,1.4.7,2.5,1.5,3.4s2,1.3,3.5,1.3,1.3-.1,2-.3,1.1-.4,1.4-.6l.4-.3.4.9s0,.2-.2.4c0,.1-.3.4-.7.8-.3.4-.7.7-1.1,1-.4.3-1,.5-1.6.8-.7.2-1.4.3-2.2.3-2.2,0-4-.7-5.3-2.2s-1.9-3.2-1.9-5.2.7-4.1,2.1-5.7"/>
    <path id="path42" class="st1" d="M203.3,32c1.2-.1,1.8-.9,1.8-2.1v-8.8c0-.2,0-.5-.3-.7s-.4-.3-.7-.3h-1.3v-1c1.1-.2,2.2-.4,3.3-.7,1.1-.3,1.9-.5,2.4-.7l.8-.3h0c-.2.6-.3,1.9-.5,4l.2-.4c0-.1.3-.4.6-.9s.7-.8,1-1.1c.3-.3.8-.6,1.2-.9s1-.4,1.5-.4,1.1.2,1.5.6c.3.4.5.8.5,1.4s-.2,1-.6,1.5c-.4.4-.9.6-1.5.6s-.7-.1-1.1-.3c-.3-.2-.7-.3-.9-.3s-.6,0-1,.3-.7.3-.9.5l-.3.3v7.6l-.2,1.7,2.9.3v1c0,0-8.7.2-8.7.2v-1.1"/>
    <path id="path44" class="st1" d="M216.7,30.1c0-.4.2-.8.3-1.2v-.5h1.2c0,1.2.5,2.1,1.2,2.7s1.5.9,2.3.9,1.1-.2,1.5-.5.6-.7.6-1.3-.2-1.1-.7-1.5-1-.8-1.7-1.2c-.7-.3-1.3-.7-2-1.1s-1.2-.9-1.7-1.6-.7-1.5-.7-2.4c0-1.4.5-2.5,1.5-3.3s2.3-1.2,3.9-1.2,1.2,0,2,.1c.7.1,1.3.2,1.8.3l.7.2-.7,3.6h-1.1c0-1.1-.4-1.9-.9-2.3s-1.1-.6-1.7-.6-1,.1-1.4.5c-.3.3-.5.7-.5,1.3s.2.9.5,1.3.8.7,1.2,1c.5.2,1,.5,1.6.8s1.1.6,1.6,1,.9.8,1.2,1.4.5,1.3.5,2.1c0,1.5-.5,2.7-1.6,3.5s-2.4,1.2-4.1,1.2-1.5,0-2.2-.2-1.4-.4-2-.7-.9-.8-.9-1.3,0-.6,0-1"/>
    <path id="path46" class="st5" d="M239.4,29.5v-3.9l-1,.2c-1.2.2-2.2.6-3.2,1.2s-1.4,1.4-1.4,2.5.2,1.1.5,1.5.8.5,1.3.5c.9,0,2.2-.7,3.7-2h.1ZM233.1,26.5c1.5-.9,3.2-1.5,5.2-1.8l1.1-.2c0-1.5,0-2.6,0-3.5-.3-1.4-1-2.1-2.1-2.1s-1.3.3-1.9.8c-.6.5-1,1-1.2,1.6l-.4.8h-1l-.6-2.5c.2-.1.4-.3.8-.5.3-.2,1-.5,2.1-.8,1-.3,2.1-.5,3.2-.5s2.5.4,3.1,1c.5.7.8,1.9.8,3.7v7.6c0,.6,0,1,.2,1.2,0,.2.4.4.7.4s.5,0,.9-.2.5-.2.7-.3l.2-.2.4.7c0,.1-.3.3-.5.5s-.6.5-1.2.8c-.6.3-1.2.5-1.8.5s-1.2-.2-1.6-.6c-.4-.4-.6-1-.6-1.7v-.8s0,.2-.2.4c0,.1-.3.4-.6.7s-.7.7-1,.9c-.4.3-.8.5-1.4.8-.6.2-1.2.3-1.8.3-1,0-1.9-.3-2.5-1-.6-.6-.9-1.4-.9-2.4,0-1.5.7-2.6,2.2-3.5"/>
    <path id="path48" class="st5" d="M256.5,30v-9.2c0-1.2-.8-1.7-2.4-1.7s-3,.6-4,1.7-1.5,2.6-1.5,4.5.4,3.1,1.2,4.4c.8,1.2,1.9,1.8,3.3,1.8s2.5-.5,3.4-1.5h0ZM247.9,20.3c1.5-1.7,3.5-2.5,6.2-2.5l2.3.2v-5.9c0-.3,0-.5-.3-.7s-.4-.3-.7-.3h-1.4v-.9c1.1-.2,2.1-.5,3-.7s1.5-.4,1.8-.6l.5-.2h0c-.2.9-.3,2.2-.3,3.9v17.3c0,.9,0,1.4.4,1.6.3.2.8.3,1.4.3h.9v.9l-5.4.6h0c0-.7,0-1.3,0-1.8v-.7c-1.2,1.8-2.8,2.7-4.7,2.7s-3.4-.7-4.5-2.1-1.7-3.1-1.7-5,.7-4.2,2.2-5.9"/>
    <path id="path50" class="st5" d="M263.3,20.9c-.2-.5-.4-.9-.7-1.2-.3-.3-.5-.5-.7-.6h-.3v-.9h4.8c0-.1,0,0,0,0-.4.9-.4,2,0,3l2.5,6.9c.2.5.4,1.2.6,2l3.9-8.8c.5-1.2,0-2-1.6-2.4v-.8h4.4l.2.5c-.3.1-.7.7-1.2,1.7l-5.8,13-1.4-.4-4.7-12.1"/>
    <path id="path52" class="st5" d="M280.6,30.1c.8,1.4,1.9,2.2,3.5,2.2s2.4-.6,3.2-1.8c.8-1.2,1.1-2.7,1.1-4.6s-.2-2.2-.4-3.3c-.3-1-.8-1.9-1.5-2.6s-1.6-1.1-2.7-1.1-2.5.6-3.2,1.8-1.1,2.7-1.1,4.4.4,3.5,1.2,5h0ZM276.9,23c.3-.9.7-1.8,1.3-2.6s1.4-1.4,2.4-1.9,2.2-.7,3.5-.7c2.3,0,4.1.7,5.4,2s1.9,3.1,1.9,5.2-.3,2.8-.8,4-1.4,2.3-2.7,3.1c-1.2.8-2.7,1.3-4.3,1.3s-4-.7-5.3-2.1-1.9-3.2-1.9-5.4.2-2,.4-2.9"/>
    <path id="path54" class="st5" d="M294.5,20.2c1.3-1.6,3-2.4,5.1-2.4s2.4.2,3.5.7,1.7,1.1,1.7,1.8,0,.6-.3.8-.5.4-.9.4-.7-.1-1-.4-.6-.6-.8-.9-.5-.6-.9-.9-.9-.4-1.4-.4c-1.3,0-2.3.6-3,1.8s-1.1,2.6-1.1,4.3.5,3.2,1.3,4.4c.9,1.2,2.3,1.8,4.1,1.8s1.4-.1,2-.4c.6-.2,1.1-.5,1.3-.7l.4-.3.4.7s0,.2-.2.3c0,.1-.3.4-.6.7-.3.3-.7.6-1,.9-.4.2-.9.5-1.5.7s-1.3.3-2,.3c-2.2,0-3.9-.7-5.1-2.2-1.2-1.5-1.9-3.2-1.9-5.3s.6-4,1.9-5.7"/>
    <path id="path56" class="st5" d="M315.3,29.5v-3.9l-1,.2c-1.2.2-2.2.6-3.2,1.2s-1.4,1.4-1.4,2.5.2,1.1.5,1.5.8.5,1.3.5c.9,0,2.2-.7,3.7-2h.1ZM309,26.5c1.5-.9,3.2-1.5,5.2-1.8l1.1-.2c0-1.5,0-2.6,0-3.5-.3-1.4-1-2.1-2.1-2.1s-1.3.3-1.9.8c-.6.5-1,1-1.2,1.6l-.4.8h-1l-.6-2.5c.2-.1.4-.3.8-.5.3-.2,1-.5,2.1-.8,1-.3,2.1-.5,3.2-.5s2.5.4,3.1,1c.5.7.8,1.9.8,3.7v7.6c0,.6,0,1,.2,1.2,0,.2.4.4.7.4s.5,0,.9-.2.5-.2.7-.3l.2-.2.4.7c0,.1-.3.3-.5.5s-.6.5-1.2.8c-.6.3-1.2.5-1.8.5s-1.2-.2-1.6-.6c-.4-.4-.6-1-.6-1.7v-.8s0,.2-.2.4c0,.1-.3.4-.6.7s-.7.7-1,.9c-.4.3-.8.5-1.4.8-.6.2-1.2.3-1.8.3-1,0-1.9-.3-2.5-1s-.9-1.4-.9-2.4c0-1.5.7-2.6,2.2-3.5"/>
    <path id="path58" class="st5" d="M323.2,22v-2.1h-2.1v-1c1-.2,1.7-.5,2.2-1l1.2-3.6h1.5c-.2.7-.3,1.8-.3,3.4v.5h5.1l-.2,1.6h-4.5l-.3.3v8.4c0,1,.2,1.8.5,2.2.3.5.9.7,1.8.7s.9,0,1.4-.2c.5-.1.9-.2,1.1-.4l.4-.2.4.6s0,.1-.2.2c0,0-.3.2-.6.5-.3.2-.7.4-1,.6s-.8.3-1.3.5c-.5,0-1.1.2-1.6.2-2.4,0-3.7-1.4-3.7-4.3v-7.1"/>
    <path id="path60" class="st5" d="M336.3,20.3c-.7.9-1,2-1.2,3.3l6.9-.9v-.4c0-.2,0-.5-.2-.9,0-.4-.3-.8-.5-1.1s-.5-.6-.9-.9-.9-.4-1.5-.4c-1,0-1.9.4-2.5,1.3h0ZM334.4,20.1c1.3-1.6,3-2.4,5-2.4s2.8.5,4,1.5c1.1,1,1.7,2.3,1.8,4-.6.2-1.1.4-1.5.4l-8.2,1.2-.3.4c0,1.7.5,3.1,1.4,4.2s2.2,1.7,3.9,1.7,1.5-.1,2.2-.4,1.2-.5,1.6-.8l.5-.4.4.7s0,.2-.2.3c0,.1-.3.4-.6.7s-.7.7-1.1,1c-.4.3-.9.5-1.6.7s-1.4.3-2.1.3c-2.2,0-3.9-.7-5.2-2.2-1.2-1.5-1.8-3.2-1.8-5.3s.7-4.2,2-5.7"/>
    <path id="path62" class="st8" d="M348.7,31.1c0-.4.2-.6.5-.6s.5.2.5.6-.2.6-.5.6-.5-.2-.5-.6"/>
    <path id="path64" class="st8" d="M352.5,28.3c0,.9.2,1.6.6,2.1.4.5,1,.8,1.7.8s1.3-.2,1.7-.8c.4-.5.6-1.2.6-2.1s-.2-1.6-.6-2.1-1-.8-1.7-.8-1.3.2-1.7.8c-.4.5-.6,1.2-.6,2.1h0ZM357.7,28.3c0,1.1-.3,1.9-.8,2.5s-1.2.9-2.2.9-1.1-.1-1.5-.4-.8-.7-1-1.2-.3-1.1-.3-1.8c0-1.1.3-1.9.8-2.5s1.2-.9,2.2-.9,1.6.3,2.1.9.8,1.4.8,2.5"/>
    <path id="path66" class="st8" d="M362.7,24.9h.9v.6c-.4,0-.7-.1-1-.1-.6,0-1,.2-1.4.7s-.5,1.1-.5,1.8v3.6h-.6v-6.6h.5v1.2h0c.3-.5.6-.8.9-1s.7-.3,1.1-.3"/>
    <path id="path68" class="st8" d="M365.7,27.1c0,.5.2.9.5,1.2.3.3.7.4,1.2.4s1-.1,1.3-.4.4-.7.4-1.2-.2-1-.4-1.3c-.3-.3-.7-.4-1.3-.4s-.9.1-1.2.5c-.3.3-.4.7-.4,1.3h0ZM365.2,32.7c0,.9.7,1.4,2,1.4s2.6-.5,2.6-1.7,0-.7-.4-.9-.7-.3-1.3-.3h-1.1c-1.2,0-1.8.5-1.8,1.4h0ZM370.5,25v.4h-1.4c.4.5.6,1,.6,1.6s-.2,1.1-.6,1.5-1,.6-1.7.6-.5,0-.6,0c-.2.1-.4.3-.6.4s-.2.4-.2.5,0,.4.2.5.4.1.8.1h1.2c.7,0,1.3.1,1.7.4s.6.7.6,1.3-.3,1.2-.8,1.6c-.6.4-1.4.6-2.4.6s-1.5-.2-1.9-.5c-.5-.3-.7-.8-.7-1.3s0-.8.4-1.1.7-.5,1.1-.6c-.2,0-.4-.2-.5-.4,0-.2-.2-.3-.2-.5,0-.4.3-.8.8-1.2-.4-.2-.7-.4-.9-.7-.2-.3-.3-.7-.3-1.2s.2-1.2.6-1.6,1-.6,1.7-.6.8,0,1,.1h2.1"/>
    <path id="path70" class="st4" d="M86.4,51.7c2.3,0,3.7-1.9,3.7-4.2s-1.3-4.2-3.6-4.2h-2.1v8.4h2,0ZM82.9,42h3.5c3.1,0,5.1,2.2,5.1,5.4s-2,5.4-5.2,5.4h-3.5v-10.8"/>
    <path id="path72" class="st4" d="M105.2,51.7v1.2h-6.8v-10.8h6.7v1.2h-5.3v3.5h5v1.2h-5v3.7h5.4"/>
    <path id="path74" class="st4" d="M111.3,47.5c0-3.3,1.7-5.6,4.9-5.6s4,1.5,4.3,3.8l-1.5.2c-.2-1.6-1.2-2.7-2.9-2.7s-3.3,1.8-3.3,4.4,1.1,4.5,3.3,4.5,2.6-1,2.9-2.6l1.4.2c-.4,2-1.7,3.7-4.3,3.7s-4.9-2.6-4.9-5.7"/>
    <path id="path76" class="st4" d="M127.4,52.9v-10.8h1.5v10.8h-1.5"/>
    <path id="path78" class="st4" d="M135.4,49.7l1.5-.2c.2,1.3,1,2.5,2.9,2.5s2.4-.5,2.4-1.9-.8-1.7-2.1-2l-1.6-.3c-1.5-.3-2.7-1.1-2.7-3s1.5-3,3.8-3,3.8,1,4,3.1l-1.5.3c-.2-1.5-1-2.2-2.6-2.2s-2.2.7-2.2,1.8.6,1.6,1.8,1.9l1.6.3c1.7.3,3,1.1,3,3.1s-1.2,3.2-4,3.2-4.2-1.5-4.3-3.5"/>
    <path id="path80" class="st4" d="M150.4,52.9v-10.8h1.5v10.8h-1.5"/>
    <path id="path82" class="st4" d="M167,47.5c0-2.8-1.2-4.5-3.4-4.5s-3.4,1.7-3.4,4.5,1.3,4.5,3.4,4.5,3.4-1.7,3.4-4.5ZM158.6,47.5c0-3.5,2-5.7,5-5.7s4.9,2.1,4.9,5.7-2,5.7-4.9,5.7-5-2.2-5-5.7"/>
    <path id="path84" class="st4" d="M175.3,42h1.8l4.6,7.9c.3.5.5.9.7,1.4h0v-9.2h1.3v10.8h-1.8l-4.6-7.9c-.3-.5-.5-.9-.7-1.4h0v9.2h-1.3v-10.8"/>
    <path id="path86" class="st4" d="M190.1,49.7l1.5-.2c.2,1.3,1,2.5,2.9,2.5s2.4-.5,2.4-1.9-.8-1.7-2.1-2l-1.6-.3c-1.5-.3-2.7-1.1-2.7-3s1.5-3,3.8-3,3.8,1,4,3.1l-1.5.3c-.2-1.5-1-2.2-2.6-2.2s-2.2.7-2.2,1.8.6,1.6,1.8,1.9l1.6.3c1.7.3,3,1.1,3,3.1s-1.2,3.2-4,3.2-4.2-1.5-4.3-3.5"/>
    <path id="path88" class="st4" d="M217.3,42h2.1l2.9,8.3c.2.5.2.6.3,1h0c0-.4,0-.5.3-1l2.9-8.3h2.1v10.8h-1.3v-9.6h0c0,.2-.2.9-.3,1.2l-2.9,8.3h-1.4l-2.9-8.3c0-.4-.3-1-.3-1.2h0v9.6h-1.3v-10.8"/>
    <path id="path90" class="st4" d="M240.7,48.5l-1.5-4.2c0-.2-.2-.5-.3-.8h0c0,.3-.2.6-.3.8l-1.5,4.2h3.6ZM241.2,49.8h-4.4l-1.1,3.1h-1.5l4.1-10.8h1.4l4.1,10.8h-1.5l-1.1-3.1"/>
    <path id="path92" class="st4" d="M253.7,51.7c2.3,0,3.7-1.9,3.7-4.2s-1.3-4.2-3.6-4.2h-2.1v8.4h2,0ZM250.2,42h3.5c3.1,0,5.1,2.2,5.1,5.4s-2,5.4-5.2,5.4h-3.5v-10.8"/>
    <path id="path94" class="st4" d="M272.5,51.7v1.2h-6.8v-10.8h6.7v1.2h-5.3v3.5h5v1.2h-5v3.7h5.4"/>
    <path id="path96" class="st4" d="M298.6,51.7v1.2h-6.8v-10.8h6.7v1.2h-5.3v3.5h5v1.2h-5v3.7h5.4"/>
    <path id="path98" class="st4" d="M311.2,48.5l-1.5-4.2c0-.2-.2-.5-.3-.8h0c0,.3-.2.6-.3.8l-1.5,4.2h3.6ZM311.6,49.8h-4.4l-1.1,3.1h-1.5l4.1-10.8h1.4l4.1,10.8h-1.5l-1.1-3.1"/>
    <path id="path100" class="st4" d="M319.3,49.7l1.5-.2c.2,1.3,1,2.5,2.9,2.5s2.4-.5,2.4-1.9-.8-1.7-2.1-2l-1.6-.3c-1.5-.3-2.7-1.1-2.7-3s1.5-3,3.8-3,3.8,1,4,3.1l-1.5.3c-.2-1.5-1-2.2-2.6-2.2s-2.2.7-2.2,1.8.6,1.6,1.8,1.9l1.6.3c1.7.3,3,1.1,3,3.1s-1.2,3.2-4,3.2-4.2-1.5-4.3-3.5"/>
    <path id="path102" class="st4" d="M336.1,48.5l-3.7-6.5h1.6l2.5,4.6c.2.3.2.5.3.6h0c0,0,0-.3.3-.6l2.5-4.6h1.6l-3.7,6.5v4.3h-1.5v-4.3"/>
    <path class="st8" d="M373.3,23.4v.2h-.5v1.2h-.3v-1.2h-.5v-.2h1.3ZM374.9,24.8v-1.3h0c0,.1,0,.3,0,.4l-.3.8h-.3l-.3-.8v-.4h0v1.3h-.3v-1.5h.5l.2.7v.4h0v-.4l.2-.7h.4v1.5c0,0-.2,0-.2,0h.2Z"/>
  </g>
  <g>
    <path d="M595.5,11.7v9.1h-9.5c-9.9,0-16.4,6.9-17.2,15.6h-8.9c.7-13.8,10.8-24.7,26.1-24.7,0,0,9.5,0,9.5,0ZM586.2,41.8c-1.7,7.5-7.9,13.4-16.8,13.4h-9.5v8.7h9.5c14.2,0,24.1-9.6,25.8-22.1h-9.1,0Z"/>
    <g>
      <rect x="477.6" y="41.8" width="7.7" height="22.1"/>
      <path d="M493.4,11.7h-15.8v24.7h7.7v-16.5h8c3.5,0,6.4,2.9,6.4,6.4v2.4c0,3.5-2.9,6.4-6.4,6.4h-.4v1.3h11.8c1.6-2.1,2.5-4.6,2.5-7.3v-4.7c0-7-6.2-12.7-13.8-12.7h0Z"/>
    </g>
    <g>
      <path d="M507.3,36.4c.8-8.8,8.2-15.6,17.1-15.6s3.1.2,4.6.6c2-2.7,4.6-5,7.4-6.8-3.6-1.9-7.7-2.9-12-2.9-13.9,0-25.3,10.9-26.1,24.7h9Z"/>
      <path d="M528.9,54.5c-1.4.4-2.9.6-4.4.6-8.2,0-15.1-5.8-16.8-13.4h-9c1.9,12.5,12.7,22.1,25.8,22.1s7.9-.9,11.4-2.6c-2.7-1.8-5.1-4-7-6.6h0Z"/>
    </g>
    <g>
      <path class="st0" d="M540.9,60.7h17.8v-1h-19.6c.6.3,1.2.7,1.8,1h0Z"/>
      <path class="st0" d="M546.9,62.8h11.8v-1h-15.1c1.1.4,2.2.7,3.3,1h0Z"/>
      <path class="st0" d="M542.6,14.1h16.1v-.9h-13.3c-.9.3-1.9.6-2.8.9h0Z"/>
      <path class="st0" d="M538.5,16.2h20.2v-.9h-18.5c-.6.3-1.1.6-1.6.9h0Z"/>
      <path class="st0" d="M553.5,50.2c0,.4.2.8.3,1.2h4.9v-1.2h-5.2Z"/>
      <path class="st0" d="M552.1,43.9c0,.4,0,.8.2,1.2h6.4v-1.2h-6.6Z"/>
      <path class="st0" d="M553,48c0,.4.2.8.3,1.2h5.4v-1.2h-5.7Z"/>
      <path class="st0" d="M551.9,41.8v1.2h6.7v-1.2h-6.8.1Z"/>
      <path class="st0" d="M552.5,46c0,.4.2.8.2,1.2h5.9v-1.2h-6.2,0Z"/>
      <path class="st0" d="M546.9,62.8c-1.1-.2-2.2-.6-3.3-1h15.1v-1.2h-17.8c-.6-.3-1.2-.6-1.8-1h19.6v-1.2h-21.3c-.4-.3-.8-.6-1.3-1h4.9c.2-.4.4-.8.5-1.2h-6.7c-.3-.3-.7-.6-1-1h8.1c.2-.4.2-.7.2-.9v-.3h-9.4c-.3-.3-.5-.6-.8-1h10.1c0-.4,0-.8,0-1.2h-10.8c-.2-.3-.4-.6-.6-1h11.3c0-.4,0-.8-.2-1.2h-11.8c-.2-.3-.3-.6-.5-1h12.2c0-.4-.2-.8-.3-1.2h-12.4c0-.3-.3-.6-.4-1h12.5c-.3-.6-.5-.6-2-1.1h-10.8c0-.3-.2-.6-.3-1h8.5c-.2-.2-.5-.3-.7-.6,0,0-.2-.3-.3-.5h-7.8c0-.3-.2-.6-.2-1h7.9c0,0,0-.3,0-.4l.6-.8h-10.5c1.9,12.5,12.7,22.1,25.8,22.1h7.8v-1.1h-11.8l-.3.8Z"/>
      <path class="st0" d="M552.8,54.4c-.7.3-1.5.7-2.3,1.2h8.2v-1.2h-5.9,0Z"/>
      <path class="st0" d="M554.1,52.3c.2.6.3,1,.3,1.2h4.3v-1.2h-4.6Z"/>
      <path class="st0" d="M548.4,56.5c-1,.5-2,.9-2.8,1.2h13v-1.2h-10.3.1Z"/>
      <path class="st0" d="M553.2,35.2c0,.4-.2.8-.3,1.2h5.8v-1.2h-5.5Z"/>
      <path class="st0" d="M554.5,30.9c0,.4-.2.8-.4,1.1h4.6v-1.1h-4.2Z"/>
      <path class="st0" d="M553.8,33c0,.4-.2.8-.3,1.2h5.2v-1.2h-4.9,0Z"/>
      <path class="st0" d="M555.4,20.4c1.3.5,2.1,1,2.3,1.1h1.1v-1.1h-3.4Z"/>
      <path class="st0" d="M557.4,22.5c0,.3-.3.7-.4,1.1h1.8v-1.1h-1.4Z"/>
      <path class="st0" d="M538.5,16.2c.5-.3,1.1-.7,1.6-.9h18.5v-1.1h-16.1c.9-.4,1.8-.7,2.8-.9h13.3v-1.4h-7.8c-13.9,0-25.3,10.9-26,24.6h8.9c0-.4.2-.7.5-1.1h-7.6c0-.3,0-.6,0-1h8.2c.2-.3.5-.7.8-1.2h-8.9c0-.4,0-.7.2-1.1h0c0,0,9.3,0,9.3,0,.2-.4.4-.7.7-1.1h-9.7c0-.3.2-.6.3-1h9.8c.2-.4.3-.8.5-1.1h-9.9c0-.3.2-.6.4-1h9.9c0-.4.2-.8.3-1.1h-9.7c.2-.3.3-.6.5-1h9.4c0-.4,0-1-.2-1.1h-8.6c.2-.3.4-.6.6-1h8.1c.3-.9,1.1-1,1.1-1,0,0,0-.1.2-.2h-8.5c.2-.3.5-.6.8-1h8.5c.2-.4.4-.8.6-1.1h-8c.3-.3.6-.6.9-1h7.4c0-.4.2-.8.3-1.1h-6.4c.4-.3.8-.6,1.2-1h5.3c0-.3.2-.5.4-.5.6,0,1.2.2,1.7.5h14.3v-1.1h-20.2.2Z"/>
      <path class="st0" d="M546,18.3c.6.4,1.2.7,1.8.7,1.7,0,3.2.2,4.4.5h6.4v-1.1h-12.7,0Z"/>
      <path class="st0" d="M555.1,28.8c0,.4-.2.8-.4,1.1h3.9v-1.1h-3.6,0Z"/>
      <path class="st0" d="M555.9,26.7c0,.4-.3.8-.4,1.1h3.2v-1.1h-2.8,0Z"/>
      <path class="st0" d="M556.6,24.6c0,.4-.3.8-.4,1.1h2.5v-1.1h-2.1Z"/>
    </g>
    <g>
      <rect class="st0" x="477.6" y="40" width="117.7" height=".9"/>
      <rect class="st0" x="477.6" y="37" width="117.7" height=".9"/>
      <rect class="st0" x="477.6" y="38.5" width="117.7" height=".9"/>
    </g>
    <path d="M594.6,60.9c0,1.7-1.3,3-3.1,3s-3.1-1.3-3.1-3,1.4-3,3.1-3,3.1,1.3,3.1,3ZM589.2,60.9c0,1.3,1,2.4,2.3,2.4s2.3-1.1,2.3-2.4-1-2.4-2.3-2.4-2.3,1.1-2.3,2.4h0ZM591.1,62.5h-.7v-3h1.2c.5,0,.8,0,1,.2.2,0,.3.4.3.7s-.3.6-.6.7h0c.3.2.5.4.6.8,0,.5.2.6.2.8h-.8c0,0-.2-.4-.2-.7s-.2-.5-.6-.5h-.3v1.2h0v-.2ZM591.1,60.8h.3c.4,0,.7,0,.7-.4s-.2-.5-.6-.5h-.4v.9h0Z"/>
    <path class="st0" d="M443.1,65s-23.3-1.4-21.9-49.8c0-.6.4-1.1,1-1.2,12.2-2.7,17.8-4.8,19.9-5.8.7-.3,1.4-.3,2.1,0,2.1,1,7.7,3.1,19.9,5.8.6.1,1,.6,1,1.2,1.3,48.4-21.9,49.8-21.9,49.8h0Z"/>
    <path d="M443.1,63.7h0c-.2,0-5.7-.5-11-6.7-3.1-3.6-5.5-8.3-7.1-14.2-2-7.2-2.9-16.1-2.6-26.5,0-.4.3-.8.8-.9,10.5-2.3,15.9-4.2,18.5-5.4.8-.4,2.1-.4,2.8,0,2.7,1.2,8,3.1,18.5,5.4.4,0,.8.5.8.9.3,10.3-.5,19.3-2.6,26.5-1.6,5.8-4,10.6-7.1,14.2-5.3,6.2-10.8,6.7-11,6.7h0ZM423.5,16.5c-.4,12.7.9,29.9,9.4,39.8,4.8,5.6,9.8,6.3,10.3,6.4.5,0,5.5-.8,10.3-6.4,4.7-5.5,10.1-16.8,9.4-39.8-10.6-2.3-16-4.2-18.7-5.5-.5-.2-1.5-.2-1.9,0-2.7,1.2-8.1,3.2-18.7,5.5h-.1Z"/>
  </g>
</svg>