<?xml version="1.0" encoding="UTF-8"?>
<svg id="Layer_1" xmlns="http://www.w3.org/2000/svg" version="1.1" viewBox="0 0 1280 69.9">
  <!-- Generator: Adobe Illustrator 29.1.0, SVG Export Plug-In . SVG Version: 2.1.0 Build 142)  -->
  <defs>
    <style>
      .st0 {
        fill: #4285f4;
      }

      .st1 {
        fill: #ffd800;
      }

      .st2 {
        fill: #fbbc05;
      }

      .st3 {
        fill: #41a7de;
      }

      .st4 {
        fill: #c9c5c5;
      }

      .st5 {
        fill: #1e465c;
      }

      .st6 {
        fill: #a8a8a7;
      }

      .st7 {
        fill: #34a853;
      }

      .st8 {
        fill: #064d69;
      }

      .st9 {
        fill: #fff;
      }

      .st10 {
        fill: #ccc7c6;
      }

      .st11 {
        fill: #ea4335;
      }

      .st12 {
        fill: #005128;
      }

      .st13 {
        fill: #191919;
      }

      .st14 {
        fill: #005f86;
      }

      .st15 {
        fill: #505054;
      }

      .st16 {
        fill: #00b67a;
      }
    </style>
  </defs>
  <g>
    <g>
      <path class="st14" d="M129.3,25c0-1-.8-1.8-1.8-1.8h-2.8v3.5h2.8c1,0,1.8-.8,1.8-1.8h0Z"/>
      <path class="st14" d="M151.2,26.6c0-1.9-1.5-3.4-3.4-3.4h-2.1v6.8h2.1c1.9,0,3.4-1.5,3.4-3.4Z"/>
      <path class="st14" d="M95.4,42.8c0-.7-.5-1.3-1.4-1.3h-2.6v2.6h2.6c.8,0,1.4-.5,1.4-1.3h0Z"/>
      <path class="st14" d="M94.6,46.2h-3.2v2.8h3.2c.9,0,1.5-.5,1.5-1.4s-.5-1.4-1.5-1.4Z"/>
      <path class="st14" d="M183.9,23.2h-2.1v6.8h2.1c1.9,0,3.4-1.5,3.4-3.4s-1.5-3.4-3.4-3.4Z"/>
      <path class="st14" d="M186.6,0H26c-5.8,0-10.5,4.7-10.5,10.5v47.7c0,5.8,4.7,10.5,10.5,10.5h160.6c.2,0,.4,0,.5,0,2.5-.1,4.8-1.1,6.5-2.7.2-.2.5-.5.7-.7,1.7-1.9,2.7-4.3,2.7-7h0V10.5c0-5.8-4.7-10.5-10.5-10.5ZM77.4,67.7H26c-5.3,0-9.5-4.3-9.5-9.5V10.5c0-5.3,4.3-9.5,9.5-9.5h51.4v66.7ZM155.2,20.8h2.4v11.7h-2.4s0-11.7,0-11.7ZM143.3,20.8h4.5c3.2,0,5.8,2.6,5.8,5.8s-2.6,5.8-5.8,5.8h-4.5s0-11.7,0-11.7ZM133.2,30.1v-9.2h8.6v2.4h-6.1v2.4h5.5v2.2h-5.5v2.3h6.1v2.4h-8.6s0-2.4,0-2.4ZM92.9,20.8h2.2l4.9,11.7h-2.4l-1-2.4h-5.2l-1,2.4h-2.4s4.9-11.7,4.9-11.7ZM95.2,51.1h-6.3v-11.7h5.2c2.5,0,3.8,1.4,3.8,3s-.9,2.5-2,2.7c1.8,0,2.7,1.4,2.7,2.9s-1.2,3.2-3.4,3.2ZM109.6,46.3c0,2.8-2.2,5-5,5h0c-2.8,0-5-2.2-5-5v-6.9h2.4v6.9c0,1.4,1.1,2.6,2.6,2.6h0c1.4,0,2.6-1.1,2.6-2.6v-6.9h2.4s0,6.9,0,6.9ZM105.6,30.2c1.2,0,2.3-.6,2.9-1.5l1.7,1.7c-1.1,1.4-2.8,2.2-4.7,2.2-3.3,0-6-2.7-6-6s2.7-6,6-6,3.6.9,4.7,2.2l-1.7,1.7c-.7-.9-1.7-1.5-2.9-1.5-2,0-3.6,1.6-3.6,3.6s1.6,3.6,3.6,3.6h0ZM115.2,51.1c-2.2,0-3.7-.7-4.8-1.8l1.3-1.8c.8.8,2,1.5,3.6,1.5s2-.6,2-1.3-1-1.1-2.3-1.4c-1.8-.4-4.2-.9-4.2-3.5s1.6-3.4,4.3-3.4,3.3.5,4.4,1.6l-1.3,1.8c-.9-.8-2.1-1.2-3.2-1.2s-1.7.5-1.7,1.2.9,1,2.2,1.3c1.9.4,4.2,1,4.2,3.5s-1.5,3.6-4.5,3.6h0ZM116.6,32.7c-3.3,0-6-2.7-6-6s2.7-6,6-6,3.6.9,4.7,2.2l-1.7,1.7c-.7-.9-1.7-1.5-2.9-1.5-2,0-3.6,1.6-3.6,3.6s1.6,3.6,3.6,3.6,2.3-.6,2.9-1.5l1.7,1.7c-1.1,1.4-2.8,2.2-4.7,2.2h0ZM123.5,51.1h-2.4v-11.7h2.4v11.7ZM124.7,32.5h-2.4v-11.7h5.6c2.2,0,4,1.8,4,4s-1,3.1-2.4,3.7l2.8,4h-2.9l-2.6-3.7h-2v3.7h0ZM135.6,51.1h-2.4l-5.3-7.3v7.3h-2.4v-11.7h2.4l5.3,7.4v-7.4h2.4v11.7ZM146,41.8h-6.1v2.3h5.5v2.2h-5.5v2.3h6.1v2.4h-8.6v-11.7h8.6v2.4h0ZM151.6,51.1c-2.2,0-3.7-.7-4.8-1.8l1.3-1.8c.8.8,2,1.5,3.6,1.5s2-.6,2-1.3-1-1.1-2.3-1.4c-1.9-.4-4.2-.9-4.2-3.5s1.6-3.4,4.3-3.4,3.3.5,4.4,1.6l-1.3,1.8c-.9-.8-2.1-1.2-3.2-1.2s-1.7.5-1.7,1.2.9,1,2.2,1.3c1.9.4,4.2,1,4.2,3.5s-1.5,3.6-4.5,3.6h0ZM160.9,51.1c-2.2,0-3.7-.7-4.8-1.8l1.3-1.8c.8.8,2,1.5,3.6,1.5s2-.6,2-1.3-1-1.1-2.3-1.4c-1.9-.4-4.2-.9-4.2-3.5s1.6-3.4,4.3-3.4,3.3.5,4.4,1.6l-1.3,1.8c-.9-.8-2.1-1.2-3.2-1.2s-1.7.5-1.7,1.2.9,1,2.2,1.3c1.9.4,4.2,1,4.2,3.5s-1.5,3.6-4.5,3.6h0ZM168.2,23.2h-3.4v9.2h-2.4v-9.2h-3.4v-2.4h9.3v2.4h0ZM177.8,23.2h-6.1v2.4h5.5v2.2h-5.5v2.3h6.1v2.4h-8.6v-11.7h8.6v2.4h0ZM183.9,32.5h-4.5v-11.7h4.5c3.2,0,5.8,2.6,5.8,5.8s-2.6,5.8-5.8,5.8Z"/>
      <polygon class="st14" points="94 23.9 92.3 27.8 95.6 27.8 94 23.9"/>
    </g>
    <g>
      <path class="st14" d="M29.3,63.4v-13.1h5.8c2.8,0,4.3,1.6,4.3,3.3s-1,2.7-2.2,3c2,0,3,1.6,3,3.2s-1.3,3.5-3.8,3.5h-7.1ZM32.1,55.6h3c.9,0,1.5-.6,1.5-1.5s-.6-1.4-1.5-1.4h-3v2.9ZM32.1,61h3.6c1.1,0,1.7-.6,1.7-1.5s-.6-1.5-1.7-1.5h-3.6s0,3.1,0,3.1Z"/>
      <path class="st14" d="M41.7,63.4v-13.1h5.8c2.8,0,4.3,1.6,4.3,3.3s-1,2.7-2.2,3c2,0,3,1.6,3,3.2s-1.3,3.5-3.8,3.5h-7.1ZM44.5,55.6h3c.9,0,1.5-.6,1.5-1.5s-.6-1.4-1.5-1.4h-3v2.9ZM44.5,61h3.6c1.1,0,1.7-.6,1.7-1.5s-.6-1.5-1.7-1.5h-3.6s0,3.1,0,3.1Z"/>
      <path class="st14" d="M54.1,63.4v-13.1h5.8c2.8,0,4.3,1.6,4.3,3.3s-1,2.7-2.2,3c2.1,0,3,1.6,3,3.2s-1.3,3.5-3.8,3.5h-7.1ZM56.9,55.6h3c.9,0,1.5-.6,1.5-1.5s-.6-1.4-1.5-1.4h-3v2.9ZM56.9,61h3.6c1.1,0,1.7-.6,1.7-1.5s-.6-1.5-1.7-1.5h-3.6s0,3.1,0,3.1Z"/>
      <path class="st14" d="M65.8,60.5c0-1.6,1.3-2.9,2.9-2.9s2.9,1.3,2.9,2.9-1.3,2.9-2.9,2.9-2.9-1.3-2.9-2.9ZM66.2,60.5c0,1.4,1.1,2.5,2.5,2.5s2.5-1.1,2.5-2.5-1.1-2.5-2.5-2.5-2.5,1.1-2.5,2.5ZM69.5,62.2l-.9-1.3h-.6v1.3h-.5v-3.4h1.4c.6,0,1.1.4,1.1,1s-.7,1-.9,1l.9,1.3h-.6ZM68.1,59.3v1.2h.9c.3,0,.6-.2.6-.6s-.3-.6-.6-.6c0,0-.9,0-.9,0Z"/>
      <polygon class="st14" points="59.2 44.1 58.2 41.5 36.2 41.5 35.2 44.1 41.2 44.1 42.4 48 52 48 53.2 44.1 59.2 44.1"/>
      <path class="st14" d="M56.2,14.9l-8-5.8c-1.1-.8-1.4-2.4-.6-3.5l-.7-.5-4.3,6c-1,1.4-1.5,3-1.4,4.6,0,2.3,1.1,4.6,3.1,6l8,5.8c1.1.8.7,3.3-.2,4.4l.7.5,2.2-3,2.9-4c1-1.4,1.5-3,1.4-4.6,0-2.3-1.1-4.6-3.1-6h0Z"/>
      <path class="st14" d="M48.7,29.3l-5.2-3.7c-.7-.5-.9-1.5-.4-2.2l-.5-.3-2.8,3.9c-.7.9-1,1.9-.9,3,0,1.5.7,3,2,3.9l5.2,3.7c.7.5.4,2.2,0,2.9l.5.3,1.4-1.9,1.9-2.6c.7-.9,1-1.9.9-3,0-1.5-.7-3-2-3.9Z"/>
    </g>
  </g>
  <g>
    <path class="st13" d="M299.1,22.3h21.6v4h-8.5v22.6h-4.7v-22.6h-8.5v-4h0,0ZM319.8,29.7h4v3.7h0c.1-.5.4-1,.7-1.5s.8-1,1.3-1.4c.5-.4,1.1-.7,1.7-1,.6-.2,1.3-.4,1.9-.4s.9,0,1,0,.4,0,.6,0v4.1c-.3,0-.6,0-.9-.1s-.6,0-.9,0c-.7,0-1.4.2-2,.4s-1.2.7-1.7,1.3c-.5.6-.9,1.2-1.1,2.1s-.4,1.8-.4,2.8v9.2h-4.3v-19.3h0ZM350.6,49h-4.2v-2.7h0c-.5,1-1.3,1.8-2.3,2.3-1,.6-2.1.9-3.2.9-2.5,0-4.4-.6-5.5-1.9s-1.7-3.2-1.7-5.7v-12.3h4.3v11.8c0,1.7.3,2.9,1,3.6.6.7,1.6,1,2.7,1s1.6-.1,2.2-.4,1.1-.6,1.5-1.1c.4-.5.6-1,.8-1.7.2-.6.2-1.3.2-2.1v-11.2h4.3v19.3h0ZM357.9,42.8c.1,1.2.6,2.1,1.4,2.6.8.5,1.8.8,3,.8s.9,0,1.4,0,1-.2,1.4-.4c.5-.2.8-.4,1.1-.8.3-.3.4-.8.4-1.3,0-.5-.2-1-.6-1.3-.4-.4-.9-.6-1.4-.8-.6-.2-1.2-.4-2-.5-.8-.2-1.5-.3-2.3-.5-.8-.2-1.6-.4-2.3-.6-.7-.2-1.4-.6-2-1-.6-.4-1-1-1.4-1.6-.4-.7-.5-1.5-.5-2.5s.3-1.9.8-2.6c.5-.7,1.2-1.3,1.9-1.7.8-.4,1.7-.7,2.6-.9,1-.2,1.9-.3,2.8-.3s2,.1,2.9.3,1.7.5,2.5,1c.7.5,1.3,1.1,1.8,1.8.5.8.8,1.7.9,2.8h-4.4c-.2-1-.7-1.7-1.4-2-.7-.4-1.6-.5-2.5-.5s-.7,0-1.1,0-.8.2-1.2.3c-.4.1-.7.3-.9.6-.2.3-.4.6-.4,1s.2.9.5,1.3.8.6,1.4.8c.6.2,1.2.4,2,.5.8.2,1.5.3,2.3.5.8.2,1.5.4,2.3.6.8.2,1.4.6,2,1,.6.4,1,1,1.4,1.6s.5,1.5.5,2.4-.3,2.1-.8,2.9c-.5.8-1.2,1.5-2,1.9-.8.5-1.8.9-2.8,1.1-1,.2-2,.3-3,.3s-2.4-.1-3.4-.4-1.9-.7-2.7-1.2c-.8-.6-1.4-1.3-1.8-2.1-.4-.8-.7-1.8-.7-3h4.3s0,0,0,0ZM371.9,29.7h3.2v-5.8h4.3v5.8h3.8v3.2h-3.8v10.3c0,.5,0,.8,0,1.2,0,.3.1.6.3.8s.3.4.6.5c.3.1.6.2,1.1.2s.6,0,.9,0,.6,0,.9-.1v3.3c-.5,0-.9,0-1.4.2-.5,0-.9,0-1.4,0-1.1,0-2-.1-2.7-.3s-1.2-.5-1.6-.9c-.4-.4-.6-.9-.8-1.5-.1-.6-.2-1.3-.2-2.1v-11.4h-3.2v-3.2h0ZM386.3,29.7h4v2.6h0c.6-1.1,1.4-1.9,2.5-2.4s2.2-.7,3.5-.7,2.8.3,4,.8c1.1.5,2.1,1.3,2.8,2.2s1.3,2,1.7,3.3c.4,1.2.6,2.6.6,4s-.2,2.6-.5,3.8c-.3,1.2-.9,2.3-1.5,3.2s-1.5,1.7-2.6,2.2-2.3.8-3.7.8-1.2,0-1.9-.2c-.6-.1-1.2-.3-1.8-.5-.6-.2-1.1-.6-1.6-1-.5-.4-.9-.8-1.2-1.4h0v9.6h-4.3v-26.5h0ZM401.1,39.3c0-.9-.1-1.7-.3-2.5s-.6-1.5-1-2.2c-.5-.6-1-1.2-1.7-1.5-.7-.4-1.5-.6-2.3-.6-1.8,0-3.1.6-4,1.9-.9,1.2-1.4,2.9-1.4,5s.1,1.9.4,2.7c.2.8.6,1.5,1.1,2.2.5.6,1,1.1,1.7,1.4.7.4,1.4.5,2.3.5s1.8-.2,2.5-.6c.7-.4,1.2-.9,1.7-1.5.4-.6.8-1.4.9-2.2.2-.8.3-1.6.3-2.5h0ZM408.7,22.3h4.3v4h-4.3v-4ZM408.7,29.7h4.3v19.3h-4.3v-19.3h0ZM416.7,22.3h4.3v26.7h-4.3v-26.7h0ZM434,49.5c-1.5,0-2.9-.3-4.1-.8-1.2-.5-2.2-1.2-3.1-2.1-.8-.9-1.5-2-1.9-3.2s-.7-2.6-.7-4.1.2-2.8.7-4.1,1.1-2.3,1.9-3.2c.8-.9,1.9-1.6,3.1-2.1,1.2-.5,2.6-.8,4.1-.8s2.9.3,4.1.8c1.2.5,2.2,1.2,3.1,2.1.8.9,1.5,2,1.9,3.2s.7,2.6.7,4.1-.2,2.9-.7,4.1-1.1,2.3-1.9,3.2-1.9,1.6-3.1,2.1-2.6.8-4.1.8h0ZM434,46.2c.9,0,1.8-.2,2.5-.6.7-.4,1.3-.9,1.7-1.6.5-.6.8-1.4,1-2.2.2-.8.3-1.6.3-2.5s-.1-1.6-.3-2.5-.5-1.5-1-2.2-1-1.2-1.7-1.5c-.7-.4-1.5-.6-2.5-.6s-1.8.2-2.5.6c-.7.4-1.3.9-1.7,1.5-.5.6-.8,1.4-1,2.2-.2.8-.3,1.6-.3,2.5s.1,1.7.3,2.5c.2.8.5,1.5,1,2.2s1,1.2,1.7,1.6c.7.4,1.5.6,2.5.6h0ZM445,29.7h3.2v-5.8h4.3v5.8h3.8v3.2h-3.8v10.3c0,.5,0,.8,0,1.2,0,.3.1.6.3.8.1.2.3.4.6.5.3.1.6.2,1.1.2s.6,0,.9,0,.6,0,.9-.1v3.3c-.5,0-.9,0-1.4.2-.5,0-.9,0-1.4,0-1.1,0-2-.1-2.7-.3s-1.2-.5-1.6-.9c-.4-.4-.6-.9-.8-1.5-.1-.6-.2-1.3-.2-2.1v-11.4h-3.2v-3.2h0Z"/>
    <path class="st16" d="M294.1,22.3h-19.5l-6-18.6-6,18.6h-19.5s15.8,11.5,15.8,11.5l-6,18.5,15.8-11.5,15.8,11.5-6-18.5s15.8-11.5,15.8-11.5Z"/>
    <path class="st12" d="M279.7,38l-1.4-4.2-9.8,7.1,11.1-2.9Z"/>
  </g>
  <g>
    <g>
      <path class="st0" d="M520.2,22.8v4.8h11.5c-.3,2.7-1.3,4.7-2.6,6.1-1.7,1.7-4.3,3.5-8.9,3.5-7.1,0-12.7-5.7-12.7-12.9s5.6-12.9,12.7-12.9,6.6,1.5,8.7,3.5l3.4-3.4c-2.9-2.8-6.7-4.9-12.1-4.9-9.8,0-17.9,7.9-17.9,17.7s8.2,17.7,17.9,17.7,9.2-1.7,12.3-5c3.2-3.2,4.2-7.7,4.2-11.3s0-2.2-.3-3h-16.3Z"/>
      <path class="st11" d="M551.2,18.9c-6.3,0-11.5,4.8-11.5,11.4s5.2,11.4,11.5,11.4,11.5-4.8,11.5-11.4-5.2-11.4-11.5-11.4ZM551.2,37.2c-3.5,0-6.4-2.8-6.4-6.9s3-6.9,6.4-6.9,6.4,2.8,6.4,6.9-3,6.9-6.4,6.9Z"/>
      <path class="st0" d="M607.3,21.5h-.2c-1.1-1.3-3.3-2.5-6-2.5-5.7,0-10.7,5-10.7,11.4s5,11.4,10.7,11.4,4.9-1.2,6-2.6h.2v1.6c0,4.4-2.3,6.7-6.1,6.7s-5-2.2-5.8-4.1l-4.4,1.8c1.3,3,4.6,6.7,10.1,6.7s10.8-3.5,10.8-11.9v-20.5h-4.8v2h0ZM601.6,37.2c-3.5,0-6.1-3-6.1-6.9s2.6-6.9,6.1-6.9,6.1,3,6.1,7c0,4-2.7,6.9-6.1,6.9Z"/>
      <path class="st2" d="M576.7,18.9c-6.3,0-11.5,4.8-11.5,11.4s5.2,11.4,11.5,11.4,11.5-4.8,11.5-11.4-5.2-11.4-11.5-11.4ZM576.7,37.2c-3.5,0-6.4-2.8-6.4-6.9s3-6.9,6.4-6.9,6.4,2.8,6.4,6.9-3,6.9-6.4,6.9Z"/>
      <path class="st7" d="M616,7.2h4.9v34.5h-4.9V7.2Z"/>
      <path class="st11" d="M636.2,37.2c-2.5,0-4.4-1.2-5.5-3.5l15.3-6.3-.5-1.3c-.9-2.5-3.8-7.3-9.8-7.3s-10.8,4.6-10.8,11.4,4.8,11.4,11.3,11.4,8.2-3.2,9.5-5l-3.9-2.6c-1.3,1.9-3.1,3.1-5.6,3.1h0ZM635.8,23.2c2,0,3.8,1,4.3,2.5l-10.3,4.3c0-4.8,3.4-6.8,6-6.8h0Z"/>
    </g>
    <polygon class="st2" points="574.7 67.3 568.8 69.9 569.4 63.5 565.1 58.6 571.5 57.2 574.7 51.6 578 57.2 584.4 58.6 580.1 63.5 580.7 69.9 574.7 67.3"/>
    <polygon class="st2" points="554.2 67.3 548.3 69.9 548.9 63.5 544.6 58.6 551 57.2 554.2 51.6 557.5 57.2 563.9 58.6 559.6 63.5 560.2 69.9 554.2 67.3"/>
    <polygon class="st2" points="533.8 67.3 527.8 69.9 528.4 63.5 524.1 58.6 530.5 57.2 533.8 51.6 537 57.2 543.4 58.6 539.1 63.5 539.7 69.9 533.8 67.3"/>
    <polygon class="st2" points="595.2 67.3 589.3 69.9 589.9 63.5 585.6 58.6 592 57.2 595.2 51.6 598.5 57.2 604.9 58.6 600.5 63.5 601.2 69.9 595.2 67.3"/>
    <polygon class="st2" points="615.7 67.3 609.8 69.9 610.4 63.5 606.1 58.6 612.5 57.2 615.7 51.6 619 57.2 625.3 58.6 621 63.5 621.7 69.9 615.7 67.3"/>
  </g>
  <g>
    <path id="path14" class="st10" d="M729.9,62.7h-31.8c-3.5,0-6.3-2.8-6.3-6.3v-31.8h0v28.6c0,3.5,2.8,6.3,6.3,6.3h31.8c3.5,0,6.3-2.8,6.3-6.3v3.2c0,3.5-2.8,6.3-6.3,6.3"/>
    <path id="path16" class="st9" d="M698.2,56.3c-1.8,0-3.2-1.4-3.2-3.2v-31.8c0-1.8,1.4-3.2,3.2-3.2h31.8c1.8,0,3.2,1.4,3.2,3.2v31.8c0,1.8-1.4,3.2-3.2,3.2h-31.8"/>
    <path id="path18" class="st8" d="M729.9,15h-31.8c-3.5,0-6.3,2.8-6.3,6.4v31.8c0,3.5,2.8,6.3,6.3,6.3h31.8c3.5,0,6.3-2.8,6.3-6.3v-31.8c0-3.5-2.8-6.4-6.3-6.4M729.9,21.4v31.8h-31.8v-31.8h31.8"/>
    <path id="path20" class="st4" d="M714.8,49.9c-1,0-1.9-.5-2.5-1.2l-9.7-12.7c-1.1-1.4-.8-3.4.6-4.5.6-.4,1.2-.6,1.9-.6s1.9.4,2.5,1.2l6.7,8.7c2.7-4.8,7.6-12.5,14.9-19.5h.8v8.3c-8.2,9.1-12.2,18.2-12.2,18.4-.5,1-1.4,1.8-2.5,1.9-.1,0-.3,0-.4,0"/>
    <path id="path22" class="st4" d="M736.3,23.5v-2.1c0-1.8-.7-3.4-1.9-4.5,1.3-1,2.7-2,4.1-2.9.5-.3,1.1-.5,1.7-.5,1,0,2.1.5,2.7,1.4,1,1.5.5,3.4-.9,4.4-2,1.3-3.9,2.7-5.7,4.2"/>
    <path id="path24" class="st5" d="M729.9,29.7v-8.3h-.8c1.6-1.5,3.4-3.1,5.2-4.5,1.2,1.1,1.9,2.8,1.9,4.5v2.1c-2.3,2-4.5,4.1-6.3,6.2"/>
    <path id="path26" class="st3" d="M714.8,46.8c-1,0-1.9-.5-2.5-1.2l-9.7-12.7c-1.1-1.4-.8-3.4.6-4.5,1.4-1.1,3.4-.8,4.5.6l6.7,8.7c3.7-6.6,11.6-18.7,24.3-26.9,1.5-.9,3.4-.5,4.4.9,1,1.5.5,3.4-.9,4.4-16.2,10.5-24.2,28.6-24.3,28.8-.5,1-1.4,1.8-2.5,1.9-.1,0-.3,0-.4,0"/>
    <path id="path28" class="st3" d="M750.5,20.4c1.4-1.6,3.2-2.5,5.6-2.5s2.4.2,3.5.6,1.7,1.1,1.7,1.9-.1.8-.4,1.1c-.3.3-.7.5-1.1.5s-.8-.1-1.1-.4-.6-.6-.8-.9-.5-.6-.8-.9c-.4-.3-.8-.4-1.3-.4-1,0-1.9.5-2.5,1.5-.6,1-.9,2.3-.9,3.8s.4,3.1,1.2,4.2c.8,1.1,2,1.6,3.6,1.6s1.3-.1,1.9-.3,1.1-.4,1.4-.5l.5-.3.4.9c0,0-.1.2-.2.3,0,.1-.3.4-.7.7-.3.4-.7.7-1.1.9-.4.3-1,.5-1.7.7-.7.2-1.5.3-2.2.3-2.1,0-3.8-.7-5.1-2.1-1.2-1.4-1.9-3.1-1.9-5.1s.7-4,2.1-5.6"/>
    <path id="path30" class="st3" d="M767.6,28.3c.2,1,.7,1.9,1.2,2.6s1.3,1.1,2.1,1.1,1.2-.2,1.6-.6.8-1,1-1.6c.2-.7.4-1.3.5-2,0-.7.1-1.3,0-2,0-1.7-.3-3.1-1-4.4s-1.5-1.9-2.7-1.9-1.9.5-2.4,1.7-.8,2.5-.8,4.1.1,2.2.4,3.2h0ZM763.6,22.2c.5-1.2,1.4-2.2,2.7-3s2.8-1.2,4.6-1.2,4.3.7,5.7,2c1.4,1.3,2.1,3,2.1,5.2s-.7,4.1-2.2,5.8c-1.4,1.7-3.4,2.5-6,2.5s-4.2-.7-5.6-2.1-2.1-3.1-2.1-5.3.3-2.6.8-3.8"/>
    <path id="path32" class="st3" d="M779.8,32c1.2-.1,1.8-.9,1.8-2.1v-7.6c0-.5,0-.9,0-1.2,0-.2-.1-.5-.3-.7s-.4-.3-.7-.3h-1.3v-1c1.1-.2,2.2-.4,3.3-.7,1.1-.3,1.9-.5,2.4-.7l.8-.3h0c-.2.6-.3,1.8-.5,3.7,1.6-2.1,3.5-3.2,5.7-3.2s2.1.4,2.8,1.1,1,1.8,1,3.3v7.6l-.2,1.7,2.6.3v1c-.1,0-8,.2-8,.2v-1.1c1-.1,1.5-.9,1.5-2.1v-6.3c0-1.1-.1-1.8-.4-2.2-.3-.4-.7-.6-1.4-.6-1.3,0-2.4.4-3.4,1.2v7.9l-.2,1.7,2,.3v1c-.1,0-7.8.2-7.8.2v-1.1"/>
    <path id="path34" class="st3" d="M798.9,30.1c0-.4.2-.8.3-1.2v-.5h1.2c.1,1.2.5,2.1,1.2,2.7s1.5.9,2.3.9,1.1-.2,1.5-.5.6-.7.6-1.3-.2-1.1-.7-1.5c-.5-.4-1-.8-1.7-1.2-.7-.3-1.3-.7-2-1.1-.7-.4-1.2-.9-1.7-1.6-.5-.7-.7-1.5-.7-2.4,0-1.4.5-2.5,1.5-3.3s2.3-1.2,3.9-1.2,1.2,0,1.9.1c.7.1,1.3.2,1.8.3l.7.2-.7,3.6h-1.1c0-1.1-.4-1.9-.9-2.3s-1.1-.6-1.7-.6-1,.1-1.4.5c-.3.3-.5.7-.5,1.3s.2.9.5,1.3c.3.4.8.7,1.2,1,.5.2,1,.5,1.6.8.6.3,1.1.6,1.6,1s.9.8,1.2,1.4.5,1.3.5,2.1c0,1.5-.5,2.7-1.6,3.5-1.1.8-2.4,1.2-4.1,1.2s-1.5,0-2.2-.2-1.4-.4-2-.7c-.6-.3-.9-.8-.9-1.3s0-.6.1-1"/>
    <path id="path36" class="st3" d="M812.7,22.3c0-.6,0-1,0-1.2,0-.3-.1-.5-.3-.7s-.4-.3-.7-.3h-1v-1.1c1.6-.3,3-.5,4-.7s1.7-.4,1.9-.4h.3c0-.1,0,0,0,0-.2.6-.3,1.7-.3,3.4v6.5c0,1.1.2,1.9.5,2.3s.8.6,1.3.6,1-.1,1.5-.4c.5-.2,1-.5,1.2-.8l.5-.4v-6.9c0-.6,0-1,0-1.2,0-.3-.1-.5-.3-.7s-.4-.3-.7-.3h-.8v-1.1c1.6-.3,2.8-.5,3.9-.7,1-.2,1.6-.3,1.9-.4h.3c0-.1,0,0,0,0-.2.6-.3,1.7-.3,3.4v8.5c0,.8.1,1.4.4,1.5.3.2.7.3,1.4.3h.7v1c0,0-6.6.6-6.6.6h0c.2-.7.2-1.3.2-1.8v-1.4l-.3.4c-.1.1-.3.4-.7.8-.4.4-.7.7-1.1,1s-.9.5-1.5.8-1.2.3-1.8.3c-1.2,0-2.2-.3-2.9-1.1-.7-.7-1.1-1.8-1.1-3.3v-6.7"/>
    <path id="path38" class="st3" d="M829.8,32c1.2-.1,1.8-.9,1.8-2.1v-7.6c0-.5,0-.9,0-1.2,0-.2-.1-.5-.3-.7s-.4-.3-.7-.3h-1.3v-1c1.1-.2,2.2-.4,3.3-.7,1.1-.3,1.9-.5,2.4-.7l.8-.3h0c-.2.6-.3,1.8-.5,3.7,1.6-2.1,3.4-3.2,5.5-3.2s1.8.2,2.5.8c.7.5,1.1,1.3,1.3,2.3,1.6-2,3.4-3,5.4-3s2.2.4,2.8,1.1c.7.7,1,1.8,1,3.3v7.6l-.2,1.7,2.6.3v1c-.1,0-7.9.2-7.9.2v-1.1c.9-.1,1.4-.9,1.4-2.1v-6.3c0-1.1-.1-1.8-.4-2.2-.3-.4-.7-.6-1.3-.6s-1.5.2-2.2.5c-.7.3-1.1.8-1.1,1.4v7.2l-.2,1.7,2.1.2-.2,1.1-7.2.2v-1.1c.9-.1,1.4-.9,1.4-2.1v-6.3c0-1.1-.1-1.8-.4-2.2-.3-.4-.7-.6-1.3-.6-1.2,0-2.3.4-3.3,1.2v7.9l-.2,1.7,2.1.2-.2,1.1-7.7.2v-1.1"/>
    <path id="path40" class="st3" d="M861.6,20.8c-.5.8-.8,1.9-.9,3.1l5.3-.7c0-.1,0-.2,0-.4,0-.2,0-.5-.2-.9s-.2-.8-.4-1.1c-.2-.3-.4-.6-.7-.9-.3-.3-.7-.4-1.1-.4-.8,0-1.5.4-2,1.2h0ZM859,20.3c1.4-1.5,3.1-2.3,5.2-2.3s2.9.5,4,1.5c1.1,1,1.7,2.4,1.7,4.3-1,.3-1.7.5-2.1.6l-6.8,1-.3.4c.2,1.4.7,2.5,1.5,3.4s2,1.3,3.5,1.3,1.3-.1,2-.3,1.1-.4,1.4-.6l.4-.3.4.9c0,0-.1.2-.2.4,0,.1-.3.4-.7.8-.3.4-.7.7-1.1,1-.4.3-1,.5-1.6.8-.7.2-1.4.3-2.2.3-2.2,0-4-.7-5.3-2.2s-1.9-3.2-1.9-5.2.7-4.1,2.1-5.7"/>
    <path id="path42" class="st3" d="M870.6,32c1.2-.1,1.8-.9,1.8-2.1v-7.6c0-.5,0-.9,0-1.2,0-.2-.1-.5-.3-.7s-.4-.3-.7-.3h-1.3v-1c1.1-.2,2.2-.4,3.3-.7,1.1-.3,1.9-.5,2.4-.7l.8-.3h0c-.2.6-.3,1.9-.5,4l.2-.4c0-.1.3-.4.6-.9s.7-.8,1-1.1c.3-.3.8-.6,1.2-.9s1-.4,1.5-.4,1.1.2,1.5.6c.3.4.5.8.5,1.4s-.2,1-.6,1.5c-.4.4-.9.6-1.5.6s-.7-.1-1.1-.3c-.3-.2-.7-.3-.9-.3s-.6,0-1,.3-.7.3-.9.5l-.3.3v7.6l-.2,1.7,2.9.3v1c-.1,0-8.7.2-8.7.2v-1.1"/>
    <path id="path44" class="st3" d="M884,30.1c0-.4.2-.8.3-1.2v-.5h1.2c.1,1.2.5,2.1,1.2,2.7s1.5.9,2.3.9,1.1-.2,1.5-.5c.4-.3.6-.7.6-1.3s-.2-1.1-.7-1.5c-.5-.4-1-.8-1.7-1.2-.7-.3-1.3-.7-2-1.1-.7-.4-1.2-.9-1.7-1.6-.5-.7-.7-1.5-.7-2.4,0-1.4.5-2.5,1.5-3.3s2.3-1.2,3.9-1.2,1.2,0,2,.1c.7.1,1.3.2,1.8.3l.7.2-.7,3.6h-1.1c0-1.1-.4-1.9-.9-2.3s-1.1-.6-1.7-.6-1,.1-1.4.5c-.3.3-.5.7-.5,1.3s.2.9.5,1.3c.3.4.8.7,1.2,1,.5.2,1,.5,1.6.8.6.3,1.1.6,1.6,1s.9.8,1.2,1.4.5,1.3.5,2.1c0,1.5-.5,2.7-1.6,3.5-1.1.8-2.4,1.2-4.1,1.2s-1.5,0-2.2-.2-1.4-.4-2-.7c-.6-.3-.9-.8-.9-1.3s0-.6.1-1"/>
    <path id="path46" class="st8" d="M906.7,29.5v-3.9l-1,.2c-1.2.2-2.2.6-3.2,1.2s-1.4,1.4-1.4,2.5.2,1.1.5,1.5c.3.4.8.5,1.3.5.9,0,2.2-.7,3.7-2h0ZM900.4,26.5c1.5-.9,3.2-1.5,5.2-1.8l1.1-.2c0-1.5,0-2.6-.1-3.5-.3-1.4-1-2.1-2.1-2.1s-1.3.3-1.9.8c-.6.5-1,1-1.2,1.6l-.4.8h-1l-.6-2.5c.2-.1.4-.3.8-.5.3-.2,1-.5,2.1-.8,1-.3,2.1-.5,3.2-.5s2.5.4,3.1,1c.5.7.8,1.9.8,3.7v7.6c0,.6,0,1,.2,1.2.1.2.4.4.7.4s.5,0,.9-.2.5-.2.7-.3l.2-.2.4.7c-.1.1-.3.3-.5.5-.2.2-.6.5-1.2.8-.6.3-1.2.5-1.8.5s-1.2-.2-1.6-.6c-.4-.4-.6-1-.6-1.7v-.8c0,0-.1.2-.2.4,0,.1-.3.4-.6.7s-.7.7-1,.9c-.4.3-.8.5-1.4.8-.6.2-1.2.3-1.8.3-1,0-1.9-.3-2.5-1-.6-.6-.9-1.4-.9-2.4,0-1.5.7-2.6,2.2-3.5"/>
    <path id="path48" class="st8" d="M923.8,30v-9.2c0-1.2-.8-1.7-2.4-1.7s-3,.6-4,1.7-1.5,2.6-1.5,4.5.4,3.1,1.2,4.4c.8,1.2,1.9,1.8,3.3,1.8s2.5-.5,3.4-1.5h0ZM915.2,20.3c1.5-1.7,3.5-2.5,6.2-2.5l2.3.2v-4.7c0-.6,0-1,0-1.2,0-.3-.1-.5-.3-.7s-.4-.3-.7-.3h-1.4v-.9c1.1-.2,2.1-.5,3-.7s1.5-.4,1.8-.6l.5-.2h0c-.2.9-.3,2.2-.3,3.9v17.3c0,.9.1,1.4.4,1.6.3.2.8.3,1.4.3h.9v.9c0,0-5.4.6-5.4.6h0c0-.7.1-1.3.1-1.8v-.7c-1.2,1.8-2.8,2.7-4.7,2.7s-3.4-.7-4.5-2.1c-1.1-1.4-1.7-3.1-1.7-5s.7-4.2,2.2-5.9"/>
    <path id="path50" class="st8" d="M930.6,20.9c-.2-.5-.4-.9-.7-1.2-.3-.3-.5-.5-.7-.6h-.3v-.9h4.8c0-.1.1,0,.1,0-.4.9-.4,2,0,3l2.5,6.9c.2.5.4,1.2.6,2l3.9-8.8c.5-1.2,0-2-1.6-2.4v-.8h4.4l.2.5c-.3.1-.7.7-1.2,1.7l-5.8,13-1.4-.4-4.7-12.1"/>
    <path id="path52" class="st8" d="M947.9,30.1c.8,1.4,1.9,2.2,3.5,2.2s2.4-.6,3.2-1.8c.8-1.2,1.1-2.7,1.1-4.6s-.2-2.2-.4-3.3c-.3-1-.8-1.9-1.5-2.6-.7-.7-1.6-1.1-2.7-1.1s-2.5.6-3.2,1.8-1.1,2.7-1.1,4.4.4,3.5,1.2,5h0ZM944.2,23c.3-.9.7-1.8,1.3-2.6s1.4-1.4,2.4-1.9c1-.5,2.2-.7,3.5-.7,2.3,0,4.1.7,5.4,2s1.9,3.1,1.9,5.2-.3,2.8-.8,4-1.4,2.3-2.7,3.1c-1.2.8-2.7,1.3-4.3,1.3s-4-.7-5.3-2.1c-1.3-1.4-1.9-3.2-1.9-5.4s.2-2,.4-2.9"/>
    <path id="path54" class="st8" d="M961.8,20.2c1.3-1.6,3-2.4,5.1-2.4s2.4.2,3.5.7c1.1.5,1.7,1.1,1.7,1.8s-.1.6-.3.8-.5.4-.9.4-.7-.1-1-.4c-.3-.3-.6-.6-.8-.9s-.5-.6-.9-.9-.9-.4-1.4-.4c-1.3,0-2.3.6-3,1.8s-1.1,2.6-1.1,4.3.5,3.2,1.3,4.4c.9,1.2,2.3,1.8,4.1,1.8s1.4-.1,2-.4c.6-.2,1.1-.5,1.3-.7l.4-.3.4.7c0,0,0,.2-.2.3,0,.1-.3.4-.6.7-.3.3-.7.6-1,.9-.4.2-.9.5-1.5.7-.6.2-1.3.3-2,.3-2.2,0-3.9-.7-5.1-2.2-1.2-1.5-1.9-3.2-1.9-5.3s.6-4,1.9-5.7"/>
    <path id="path56" class="st8" d="M982.6,29.5v-3.9l-1,.2c-1.2.2-2.2.6-3.2,1.2s-1.4,1.4-1.4,2.5.2,1.1.5,1.5c.3.4.8.5,1.3.5.9,0,2.2-.7,3.7-2h0ZM976.3,26.5c1.5-.9,3.2-1.5,5.2-1.8l1.1-.2c0-1.5,0-2.6-.1-3.5-.3-1.4-1-2.1-2.1-2.1s-1.3.3-1.9.8c-.6.5-1,1-1.2,1.6l-.4.8h-1l-.6-2.5c.2-.1.4-.3.8-.5.3-.2,1-.5,2.1-.8,1-.3,2.1-.5,3.2-.5s2.5.4,3.1,1c.5.7.8,1.9.8,3.7v7.6c0,.6,0,1,.2,1.2.1.2.4.4.7.4s.5,0,.9-.2.5-.2.7-.3l.2-.2.4.7c-.1.1-.3.3-.5.5-.2.2-.6.5-1.2.8-.6.3-1.2.5-1.8.5s-1.2-.2-1.6-.6c-.4-.4-.6-1-.6-1.7v-.8c0,0-.1.2-.2.4,0,.1-.3.4-.6.7s-.7.7-1,.9c-.4.3-.8.5-1.4.8-.6.2-1.2.3-1.8.3-1,0-1.9-.3-2.5-1s-.9-1.4-.9-2.4c0-1.5.7-2.6,2.2-3.5"/>
    <path id="path58" class="st8" d="M990.5,22v-2.1c0,0-2.1,0-2.1,0v-1c1-.2,1.7-.5,2.2-1l1.2-3.6h1.5s0,.1,0,.1c-.2.6-.3,1.7-.3,3.3v.5h5.1l-.2,1.6h-4.5l-.3.3v8.4c0,1,.2,1.8.5,2.2.3.5.9.7,1.8.7s.9,0,1.4-.2c.5-.1.9-.2,1.1-.4l.4-.2.4.6c0,0-.1.1-.2.2,0,0-.3.2-.6.5-.3.2-.7.4-1,.6-.3.2-.8.3-1.3.5-.5.1-1.1.2-1.6.2-2.4,0-3.7-1.4-3.7-4.3v-7.1"/>
    <path id="path60" class="st8" d="M1003.6,20.3c-.7.9-1,2-1.2,3.3l6.9-.9c0-.1,0-.2,0-.4s0-.5-.2-.9c-.1-.4-.3-.8-.5-1.1s-.5-.6-.9-.9c-.4-.3-.9-.4-1.5-.4-1,0-1.9.4-2.5,1.3h0ZM1001.7,20.1c1.3-1.6,3-2.4,5-2.4s2.8.5,4,1.5c1.1,1,1.7,2.3,1.8,4-.6.2-1.1.4-1.5.4l-8.2,1.2-.3.4c0,1.7.5,3.1,1.4,4.2.9,1.1,2.2,1.7,3.9,1.7s1.5-.1,2.2-.4,1.2-.5,1.6-.8l.5-.4.4.7c0,0-.1.2-.2.3,0,.1-.3.4-.6.7s-.7.7-1.1,1c-.4.3-.9.5-1.6.7s-1.4.3-2.1.3c-2.2,0-3.9-.7-5.2-2.2-1.2-1.5-1.8-3.2-1.8-5.3s.7-4.2,2-5.7"/>
    <path id="path62" class="st15" d="M1016,31.1c0-.4.2-.6.5-.6s.5.2.5.6-.2.6-.5.6-.5-.2-.5-.6"/>
    <path id="path64" class="st15" d="M1019.8,28.3c0,.9.2,1.6.6,2.1.4.5,1,.8,1.7.8s1.3-.2,1.7-.8c.4-.5.6-1.2.6-2.1s-.2-1.6-.6-2.1c-.4-.5-1-.8-1.7-.8s-1.3.2-1.7.8c-.4.5-.6,1.2-.6,2.1ZM1025,28.3c0,1.1-.3,1.9-.8,2.5-.5.6-1.2.9-2.2.9s-1.1-.1-1.5-.4-.8-.7-1-1.2c-.2-.5-.3-1.1-.3-1.8,0-1.1.3-1.9.8-2.5s1.2-.9,2.2-.9,1.6.3,2.1.9c.5.6.8,1.4.8,2.5"/>
    <path id="path66" class="st15" d="M1030,24.9c.3,0,.6,0,.9,0v.6c-.4,0-.7-.1-1-.1-.6,0-1,.2-1.4.7s-.5,1.1-.5,1.8v3.6h-.6v-6.6h.5v1.2h.1c.3-.5.6-.8.9-1,.3-.2.7-.3,1.1-.3"/>
    <path id="path68" class="st15" d="M1033,27.1c0,.5.2.9.5,1.2.3.3.7.4,1.2.4s1-.1,1.3-.4c.3-.3.4-.7.4-1.2s-.2-1-.4-1.3c-.3-.3-.7-.4-1.3-.4s-.9.1-1.2.5c-.3.3-.4.7-.4,1.3ZM1032.5,32.7c0,.9.7,1.4,2,1.4s2.6-.5,2.6-1.7-.1-.7-.4-.9-.7-.3-1.3-.3h-1.1c-1.2,0-1.8.5-1.8,1.4h0ZM1037.8,25v.4h-1.4c.4.5.6,1,.6,1.6s-.2,1.1-.6,1.5c-.4.4-1,.6-1.7.6s-.5,0-.6,0c-.2.1-.4.3-.6.4s-.2.4-.2.5,0,.4.2.5c.2.1.4.1.8.1h1.2c.7,0,1.3.1,1.7.4s.6.7.6,1.3-.3,1.2-.8,1.6c-.6.4-1.4.6-2.4.6s-1.5-.2-1.9-.5c-.5-.3-.7-.8-.7-1.3s.1-.8.4-1.1.7-.5,1.1-.6c-.2,0-.4-.2-.5-.4-.1-.2-.2-.3-.2-.5,0-.4.3-.8.8-1.2-.4-.2-.7-.4-.9-.7-.2-.3-.3-.7-.3-1.2,0-.7.2-1.2.6-1.6s1-.6,1.7-.6.8,0,1,.1h2.1"/>
    <path id="path70" class="st6" d="M753.7,51.7c2.3,0,3.7-1.9,3.7-4.2s-1.3-4.2-3.6-4.2h-2.1v8.4h2ZM750.2,42.1h3.5c3.1,0,5.1,2.2,5.1,5.4s-2,5.4-5.2,5.4h-3.5v-10.8"/>
    <path id="path72" class="st6" d="M772.5,51.7v1.2h-6.8v-10.8h6.7v1.2h-5.3v3.5h5v1.2h-5v3.7h5.4"/>
    <path id="path74" class="st6" d="M778.6,47.5c0-3.3,1.7-5.6,4.9-5.6s4,1.5,4.3,3.8l-1.5.2c-.2-1.6-1.2-2.7-2.9-2.7s-3.3,1.8-3.3,4.4,1.1,4.5,3.3,4.5,2.6-1,2.9-2.6l1.4.2c-.4,2-1.7,3.7-4.3,3.7s-4.9-2.6-4.9-5.7"/>
    <path id="path76" class="st6" d="M794.7,52.9v-10.8h1.5v10.8h-1.5"/>
    <path id="path78" class="st6" d="M802.7,49.7l1.5-.2c.2,1.3,1,2.5,2.9,2.5s2.4-.5,2.4-1.9-.8-1.7-2.1-2l-1.6-.3c-1.5-.3-2.7-1.1-2.7-3s1.5-3,3.8-3,3.8,1,4,3.1l-1.5.3c-.2-1.5-1-2.2-2.6-2.2s-2.2.7-2.2,1.8.6,1.6,1.8,1.9l1.6.3c1.7.3,3,1.1,3,3.1s-1.2,3.2-4,3.2-4.2-1.5-4.3-3.5"/>
    <path id="path80" class="st6" d="M817.7,52.9v-10.8h1.5v10.8h-1.5"/>
    <path id="path82" class="st6" d="M834.3,47.5c0-2.8-1.2-4.5-3.4-4.5s-3.4,1.7-3.4,4.5,1.3,4.5,3.4,4.5,3.4-1.7,3.4-4.5ZM825.9,47.5c0-3.5,2-5.7,5-5.7s4.9,2.1,4.9,5.7-2,5.7-4.9,5.7-5-2.2-5-5.7"/>
    <path id="path84" class="st6" d="M842.6,42.1h1.8l4.6,7.9c.3.5.5.9.7,1.4h0c0-.4,0-.8,0-1.4v-7.8h1.3v10.8h-1.8l-4.6-7.9c-.3-.5-.5-.9-.7-1.4h0c0,.4,0,.8,0,1.4v7.8h-1.3v-10.8"/>
    <path id="path86" class="st6" d="M857.4,49.7l1.5-.2c.2,1.3,1,2.5,2.9,2.5s2.4-.5,2.4-1.9-.8-1.7-2.1-2l-1.6-.3c-1.5-.3-2.7-1.1-2.7-3s1.5-3,3.8-3,3.8,1,4,3.1l-1.5.3c-.2-1.5-1-2.2-2.6-2.2s-2.2.7-2.2,1.8.6,1.6,1.8,1.9l1.6.3c1.7.3,3,1.1,3,3.1s-1.2,3.2-4,3.2-4.2-1.5-4.3-3.5"/>
    <path id="path88" class="st6" d="M884.6,42.1h2.1l2.9,8.3c.2.5.2.6.3,1h0c0-.4,0-.5.3-1l2.9-8.3h2.1v10.8h-1.3v-8.4c0-.4,0-.8,0-1.2h0c0,.2-.2.9-.3,1.2l-2.9,8.3h-1.4l-2.9-8.3c-.1-.4-.3-1-.3-1.2h0c0,.3,0,.7,0,1.2v8.4h-1.3v-10.8"/>
    <path id="path90" class="st6" d="M908,48.5l-1.5-4.2c0-.2-.2-.5-.3-.8h0c0,.3-.2.6-.3.8l-1.5,4.2h3.6ZM908.5,49.8h-4.4l-1.1,3.1h-1.5l4.1-10.8h1.4l4.1,10.8h-1.5l-1.1-3.1"/>
    <path id="path92" class="st6" d="M921,51.7c2.3,0,3.7-1.9,3.7-4.2s-1.3-4.2-3.6-4.2h-2.1v8.4h2ZM917.5,42.1h3.5c3.1,0,5.1,2.2,5.1,5.4s-2,5.4-5.2,5.4h-3.5v-10.8"/>
    <path id="path94" class="st6" d="M939.8,51.7v1.2h-6.8v-10.8h6.7v1.2h-5.3v3.5h5v1.2h-5v3.7h5.4"/>
    <path id="path96" class="st6" d="M965.9,51.7v1.2h-6.8v-10.8h6.7v1.2h-5.3v3.5h5v1.2h-5v3.7h5.4"/>
    <path id="path98" class="st6" d="M978.5,48.5l-1.5-4.2c0-.2-.2-.5-.3-.8h0c0,.3-.2.6-.3.8l-1.5,4.2h3.6ZM978.9,49.8h-4.4l-1.1,3.1h-1.5l4.1-10.8h1.4l4.1,10.8h-1.5l-1.1-3.1"/>
    <path id="path100" class="st6" d="M986.6,49.7l1.5-.2c.2,1.3,1,2.5,2.9,2.5s2.4-.5,2.4-1.9-.8-1.7-2.1-2l-1.6-.3c-1.5-.3-2.7-1.1-2.7-3s1.5-3,3.8-3,3.8,1,4,3.1l-1.5.3c-.2-1.5-1-2.2-2.6-2.2s-2.2.7-2.2,1.8.6,1.6,1.8,1.9l1.6.3c1.7.3,3,1.1,3,3.1s-1.2,3.2-4,3.2-4.2-1.5-4.3-3.5"/>
    <path id="path102" class="st6" d="M1003.4,48.6l-3.7-6.5h1.6l2.5,4.6c.2.3.2.5.3.6h0c0-.1.1-.3.3-.6l2.5-4.6h1.6l-3.7,6.5v4.3h-1.5v-4.3"/>
    <path class="st15" d="M1040.6,23.4v.2h-.5v1.2h-.3v-1.2h-.5v-.2h1.2,0ZM1042.2,24.8v-.9c0-.1,0-.2,0-.4h0c0,.1,0,.3-.1.4l-.3.8h-.3l-.3-.8c0-.1,0-.3,0-.4h0c0,.1,0,.3,0,.4v.9h-.3v-1.5h.5l.2.7c0,.1,0,.2,0,.4h0c0-.1,0-.3,0-.4l.2-.7h.4v1.5c.1,0-.2,0-.2,0h0Z"/>
  </g>
  <g>
    <path d="M1262.8,11.7v9.1h-9.5c-9.9,0-16.4,6.9-17.2,15.6h-8.9c.7-13.8,10.8-24.7,26.1-24.7h9.5ZM1253.5,41.8c-1.7,7.5-7.9,13.4-16.8,13.4h-9.5v8.7h9.5c14.2,0,24.1-9.6,25.8-22.1h-9.1Z"/>
    <g>
      <rect x="1144.9" y="41.8" width="7.7" height="22.1"/>
      <path d="M1160.7,11.7h-15.8v24.7h7.7v-16.5h8c3.5,0,6.4,2.9,6.4,6.4v2.4c0,3.5-2.9,6.4-6.4,6.4h-.4v1.3h11.8c1.6-2.1,2.5-4.6,2.5-7.3v-4.7c0-7-6.2-12.7-13.8-12.7h0Z"/>
    </g>
    <g>
      <path d="M1174.6,36.4c.8-8.8,8.2-15.6,17.1-15.6s3.1.2,4.6.6c2-2.7,4.6-5,7.4-6.8-3.6-1.9-7.7-2.9-12-2.9-13.9,0-25.3,10.9-26.1,24.7h8.9Z"/>
      <path d="M1196.2,54.6c-1.4.4-2.9.6-4.4.6-8.2,0-15.1-5.8-16.8-13.4h-9c1.9,12.5,12.7,22.1,25.8,22.1s7.9-.9,11.4-2.6c-2.7-1.8-5.1-4-7-6.6Z"/>
    </g>
    <g>
      <path class="st1" d="M1208.2,60.7h17.8v-1h-19.6c.6.3,1.2.7,1.8,1Z"/>
      <path class="st1" d="M1214.2,62.8h11.8v-1h-15.1c1.1.4,2.2.7,3.3,1h0Z"/>
      <path class="st1" d="M1209.9,14.1h16.1v-.9h-13.3c-.9.3-1.9.6-2.8.9h0Z"/>
      <path class="st1" d="M1205.8,16.2h20.2v-.9h-18.5c-.6.3-1.1.6-1.6.9h0Z"/>
      <path class="st1" d="M1220.8,50.2c.1.4.2.8.3,1.2h4.9v-1.2h-5.2Z"/>
      <path class="st1" d="M1219.4,43.9c0,.4.1.8.2,1.2h6.4v-1.2h-6.6Z"/>
      <path class="st1" d="M1220.3,48.1c0,.4.2.8.3,1.2h5.4v-1.2h-5.7Z"/>
      <path class="st1" d="M1219.2,41.8c0,.3,0,.7,0,1.2h6.7v-1.2h-6.8Z"/>
      <path class="st1" d="M1219.8,46c0,.4.2.8.2,1.2h5.9v-1.2h-6.2Z"/>
      <path class="st1" d="M1214.2,62.8c-1.1-.2-2.2-.6-3.3-1h15.1v-1.2h-17.8c-.6-.3-1.2-.6-1.8-1h19.6v-1.2h-21.3c-.4-.3-.8-.6-1.3-1h4.9c.2-.4.4-.8.5-1.2h-6.7c-.3-.3-.7-.6-1-1h8.1c.2-.4.2-.7.2-.9v-.3h-9.4c-.3-.3-.5-.6-.8-1h10.1c0-.4,0-.8-.1-1.2h-10.8c-.2-.3-.4-.6-.6-1h11.3c0-.4-.1-.8-.2-1.2h-11.8c-.2-.3-.3-.6-.5-1h12.2c0-.4-.2-.8-.3-1.2h-12.4c-.1-.3-.3-.6-.4-1h12.5s0,0,0-.1c-.3-.5-.5-.5-2-1,0,0,0,0-.1,0h-10.7c-.1-.3-.2-.6-.3-1h8.5c-.2-.2-.5-.3-.7-.6-.1-.1-.2-.3-.3-.5h-7.8c0-.3-.2-.6-.2-1h7.9c0-.1,0-.3.1-.4l.6-.8h-10.5c1.9,12.5,12.7,22.1,25.8,22.1h7.8v-1.1h-11.8Z"/>
      <path class="st1" d="M1220.1,54.4c-.7.3-1.5.7-2.3,1.2h8.2v-1.2h-5.9,0Z"/>
      <path class="st1" d="M1221.4,52.3c.2.6.3,1,.3,1.2h4.3v-1.2h-4.6Z"/>
      <path class="st1" d="M1215.7,56.5c-1,.5-2,.9-2.8,1.2h13v-1.2h-10.3Z"/>
      <path class="st1" d="M1220.5,35.2c-.1.4-.2.8-.3,1.2h5.8v-1.2h-5.5Z"/>
      <path class="st1" d="M1221.8,30.9c-.1.4-.2.8-.4,1.1h4.6v-1.1h-4.2Z"/>
      <path class="st1" d="M1221.1,33c-.1.4-.2.8-.3,1.2h5.2v-1.2h-4.9,0Z"/>
      <path class="st1" d="M1222.7,20.4c1.3.5,2.1,1,2.3,1.1h1.1v-1.1h-3.3Z"/>
      <path class="st1" d="M1224.7,22.5c-.1.3-.3.7-.4,1.1h1.8v-1.1h-1.3Z"/>
      <path class="st1" d="M1205.8,16.2c.5-.3,1.1-.7,1.6-.9h18.5v-1.1h-16.1c.9-.4,1.8-.7,2.8-.9h13.3v-1.4h-7.8c-13.9,0-25.3,10.9-26,24.6h8.9c0-.4.2-.7.5-1.1h-7.6c0-.3,0-.6.1-1h8.2c.2-.3.5-.7.8-1.2h-8.9c0-.4.1-.7.2-1.1h0c0,.1,9.3.1,9.3.1.2-.4.4-.7.7-1.1h-9.7c0-.3.2-.6.3-1h9.8c.2-.4.3-.8.5-1.1h-9.9c.1-.3.2-.6.4-1h9.9c.1-.4.2-.8.3-1.1h-9.7c.2-.3.3-.6.5-1h9.4c0-.4,0-1-.2-1.1h-8.6c.2-.3.4-.6.6-1h8.1c.3-.9,1.1-1,1.1-1,0,0,0-.1.2-.2h-8.5c.2-.3.5-.6.8-1h8.5c.2-.4.4-.8.6-1.1h-8c.3-.3.6-.6.9-1h7.4c0-.4.2-.8.3-1.1h-6.4c.4-.3.8-.6,1.2-1h5.3s0,0,0-.1c0-.2.2-.4.4-.4.6,0,1.2.2,1.7.5h14.3v-1.1h-20.2,0Z"/>
      <path class="st1" d="M1213.3,18.3c.6.4,1.2.7,1.8.7,1.7,0,3.2.2,4.4.5h6.4v-1.1h-12.7Z"/>
      <path class="st1" d="M1222.4,28.8c-.1.4-.2.8-.4,1.1h3.9v-1.1h-3.6Z"/>
      <path class="st1" d="M1223.2,26.7c-.1.4-.3.8-.4,1.1h3.2v-1.1h-2.8Z"/>
      <path class="st1" d="M1223.9,24.6c-.1.4-.3.8-.4,1.1h2.5v-1.1h-2.1Z"/>
    </g>
    <g>
      <rect class="st1" x="1144.9" y="40.1" width="117.7" height=".9"/>
      <rect class="st1" x="1144.9" y="37.1" width="117.7" height=".9"/>
      <rect class="st1" x="1144.9" y="38.6" width="117.7" height=".9"/>
    </g>
    <path d="M1261.9,60.9c0,1.7-1.3,3-3.1,3s-3.1-1.3-3.1-3,1.4-3,3.1-3,3.1,1.3,3.1,3ZM1256.5,60.9c0,1.3,1,2.4,2.3,2.4s2.3-1.1,2.3-2.4-1-2.4-2.3-2.4-2.3,1.1-2.3,2.4h0ZM1258.4,62.5h-.7v-3c.3,0,.7,0,1.2,0s.8,0,1,.2c.2.1.3.4.3.7s-.3.6-.6.7h0c.3.2.5.4.6.8,0,.5.2.6.2.8h-.8c0-.1-.2-.4-.2-.7,0-.3-.2-.5-.6-.5h-.3v1.2h0ZM1258.4,60.8h.3c.4,0,.7-.1.7-.4s-.2-.5-.6-.5-.3,0-.4,0v.9h0Z"/>
    <path class="st1" d="M1110.4,65.1s-23.3-1.4-21.9-49.8c0-.6.4-1.1,1-1.2,12.2-2.7,17.8-4.8,19.9-5.8.7-.3,1.4-.3,2.1,0,2.1,1,7.7,3.1,19.9,5.8.6.1,1,.6,1,1.2,1.3,48.4-21.9,49.8-21.9,49.8h0Z"/>
    <path d="M1110.4,63.7h0c-.2,0-5.7-.5-11-6.7-3.1-3.6-5.5-8.3-7.1-14.2-2-7.2-2.9-16.1-2.6-26.5,0-.4.3-.8.8-.9,10.5-2.3,15.9-4.2,18.5-5.4.8-.4,2.1-.4,2.8,0,2.7,1.2,8,3.1,18.5,5.4.4,0,.8.5.8.9.3,10.3-.5,19.3-2.6,26.5-1.6,5.8-4,10.6-7.1,14.2-5.3,6.2-10.8,6.7-11,6.7h0,0ZM1090.8,16.5c-.4,12.7.9,29.9,9.4,39.8,4.8,5.6,9.8,6.3,10.3,6.4.5,0,5.5-.8,10.3-6.4,4.7-5.5,10.1-16.8,9.4-39.8-10.6-2.3-16-4.2-18.7-5.5-.5-.2-1.5-.2-1.9,0-2.7,1.2-8.1,3.2-18.7,5.5h0Z"/>
  </g>
</svg>