<?xml version="1.0" encoding="UTF-8"?>
<svg id="Layer_2" xmlns="http://www.w3.org/2000/svg" version="1.1" viewBox="0 0 160 160">
  <!-- Generator: Adobe Illustrator 29.1.0, SVG Export Plug-In . SVG Version: 2.1.0 Build 142)  -->
  <defs>
    <style>
      .st0 {
        fill: #c69435;
      }
    </style>
  </defs>
  <rect class="st0" x="7.28" y="14.56" width=".26" height="26.48"/>
  <rect class="st0" x="7.28" y="93.22" width=".26" height="31.17"/>
  <rect class="st0" x="7.54" y="14.56" width="20.68" height="26.48"/>
  <rect class="st0" x="7.54" y="93.22" width="20.68" height="31.17"/>
  <rect class="st0" x="132.29" y="14.56" width="20.42" height="26.48"/>
  <rect class="st0" x="132.29" y="93.22" width="20.42" height="31.17"/>
  <polygon class="st0" points="7.54 133.52 7.28 133.52 7.28 160 7.54 160 74.34 160 74.34 133.52 7.54 133.52"/>
  <polygon class="st0" points="7.54 51.87 7.28 51.87 7.28 83.04 7.54 83.04 74.34 83.04 74.34 51.87 7.54 51.87"/>
  <rect class="st0" x="85.14" y="133.52" width="67.57" height="26.48"/>
  <rect class="st0" x="85.14" y="51.87" width="67.57" height="31.17"/>
  <rect class="st0" x="39.02" y="14.56" width="82.47" height="26.48"/>
  <rect class="st0" x="39.02" y="93.22" width="82.47" height="31.17"/>
</svg>