<?xml version="1.0" encoding="UTF-8"?>
<svg id="Layer_1" xmlns="http://www.w3.org/2000/svg" version="1.1" viewBox="0 0 160 160">
  <!-- Generator: Adobe Illustrator 29.1.0, SVG Export Plug-In . SVG Version: 2.1.0 Build 142)  -->
  <defs>
    <style>
      .st0 {
        fill: #c69435;
      }
    </style>
  </defs>
  <path class="st0" d="M88.17,89.44c-.79-.45-1.89-.89-3.29-1.33v9.34c1.84-.32,3.21-.83,4.1-1.52.89-.7,1.33-1.65,1.33-2.86,0-.83-.16-1.52-.48-2.1-.32-.57-.87-1.08-1.67-1.52Z"/>
  <path class="st0" d="M71.5,62.99c-.41.54-.62,1.19-.62,1.95s.17,1.45.52,2.05c.35.6.9,1.13,1.67,1.57s1.78.89,3.05,1.33v-8.86c-1.14.07-2.09.27-2.86.62-.76.35-1.35.79-1.76,1.33Z"/>
  <path class="st0" d="M153.98,28.89L80,.94,6.02,28.89S-6.4,122.07,80,159.06C166.4,122.07,153.98,28.89,153.98,28.89ZM100.8,104.64c-3.37,3.59-8.67,5.77-15.92,6.53v7.81h-8.77v-7.62c-4.06-.12-7.59-.52-10.58-1.19-2.99-.67-5.81-1.57-8.48-2.71v-14.58c2.99,1.33,6.18,2.4,9.58,3.19,3.4.79,6.56,1.32,9.48,1.57v-11.72c-3.94-1.14-7.46-2.51-10.58-4.1-3.11-1.59-5.56-3.67-7.34-6.24-1.78-2.57-2.67-5.89-2.67-9.96s.86-7.08,2.57-9.62c1.71-2.54,4.11-4.51,7.19-5.91,3.08-1.4,6.68-2.22,10.81-2.48v-6.58h8.77v6.48c3.88.19,7.4.7,10.58,1.53,3.18.83,6.04,1.78,8.58,2.86l-4.1,12.77c-2.35-1.02-4.81-1.83-7.38-2.43-2.57-.6-5.13-1.03-7.67-1.28v11.53c4.45,1.33,8.23,2.75,11.34,4.24,3.11,1.49,5.49,3.4,7.15,5.72,1.65,2.32,2.48,5.35,2.48,9.1,0,5.15-1.68,9.51-5.05,13.1Z"/>
</svg>