<?xml version="1.0" encoding="UTF-8"?>
<svg id="Layer_1" xmlns="http://www.w3.org/2000/svg" version="1.1" viewBox="0 0 160 160">
  <!-- Generator: Adobe Illustrator 29.1.0, SVG Export Plug-In . SVG Version: 2.1.0 Build 142)  -->
  <defs>
    <style>
      .st0 {
        fill: #c69435;
      }
    </style>
  </defs>
  <g id="Layer_2">
    <g>
      <path class="st0" d="M140.67,10.66c-.4-.47-1.11-.47-1.51,0-3.64,4.25-19.25,22.5-19.25,23.48v113.55c0,1.1.9,2,2,2h36c1.1,0,2-.9,2-2V34.14c0-.98-15.6-19.23-19.25-23.48h0Z"/>
      <path class="st0" d="M50.18,69.79v-19.76h-10.1v-15.88c0-.98-15.6-19.23-19.25-23.48-.4-.47-1.11-.47-1.51,0C15.68,14.91.08,33.16.08,34.14v113.55c0,1.1.9,2,2,2h36c1.1,0,2-.9,2-2v-17.48h10.1v-19.76h-10.1v-40.66s10.1,0,10.1,0Z"/>
      <path class="st0" d="M110.1,69.79v-19.76h-10.1v-15.88c0-.98-15.6-19.23-19.25-23.48-.4-.47-1.11-.47-1.51,0-3.64,4.25-19.25,22.5-19.25,23.48v113.55c0,1.1.9,2,2,2h36c1.1,0,2-.9,2-2v-17.48h10.1v-19.76h-10.1v-40.66h10.11Z"/>
    </g>
  </g>
</svg>