<?xml version="1.0" encoding="UTF-8"?>
<svg id="Layer_3" xmlns="http://www.w3.org/2000/svg" version="1.1" viewBox="0 0 763.92 290.07">
  <!-- Generator: Adobe Illustrator 29.1.0, SVG Export Plug-In . SVG Version: 2.1.0 Build 142)  -->
  <defs>
    <style>
      .st0 {
        fill: #4285f4;
      }

      .st1 {
        fill: #fbbc05;
      }

      .st2 {
        fill: #34a853;
      }

      .st3 {
        fill: #ea4335;
      }
    </style>
  </defs>
  <g>
    <path class="st0" d="M133.78,74.14v22.27h53.23c-1.63,12.49-5.79,21.64-12.13,28.06-7.79,7.79-19.92,16.29-41.1,16.29-32.77,0-58.39-26.43-58.39-59.2s25.62-59.2,58.39-59.2c17.65,0,30.6,6.97,40.1,15.93l15.66-15.66C176.33,9.78,158.59,0,133.78,0,88.88,0,51.13,36.57,51.13,81.47s37.75,81.47,82.65,81.47c24.26,0,42.55-7.97,56.85-22.81,14.66-14.66,19.28-35.4,19.28-52.05,0-5.16-.36-9.96-1.18-13.94h-74.95Z"/>
    <path class="st3" d="M276.45,56.03c-29.06,0-52.78,22.09-52.78,52.59s23.72,52.59,52.78,52.59,52.78-22.27,52.78-52.59-23.72-52.59-52.78-52.59ZM276.45,140.49c-15.93,0-29.69-13.13-29.69-31.86s13.76-31.86,29.69-31.86,29.69,12.94,29.69,31.86-13.76,31.86-29.69,31.86Z"/>
    <path class="st0" d="M535.17,67.8h-.81c-5.16-6.16-15.12-11.77-27.7-11.77-26.25,0-49.15,22.9-49.15,52.59s22.9,52.59,49.15,52.59c12.58,0,22.54-5.61,27.7-11.95h.81v7.33c0,20.1-10.77,30.87-28.06,30.87-14.12,0-22.9-10.14-26.52-18.74l-20.1,8.33c5.79,13.94,21.09,31.05,46.62,31.05,27.07,0,49.97-15.93,49.97-54.77V58.75h-21.91v9.05ZM508.64,140.49c-15.93,0-28.06-13.58-28.06-31.86s12.13-31.86,28.06-31.86,28.06,13.58,28.06,32.05c.09,18.38-12.31,31.68-28.06,31.68Z"/>
    <path class="st1" d="M394.13,56.03c-29.06,0-52.78,22.09-52.78,52.59s23.72,52.59,52.78,52.59,52.78-22.27,52.78-52.59-23.72-52.59-52.78-52.59ZM394.13,140.49c-15.93,0-29.69-13.13-29.69-31.86s13.76-31.86,29.69-31.86,29.69,12.94,29.69,31.86-13.76,31.86-29.69,31.86Z"/>
    <path class="st2" d="M575.18,2.17h22.72v159.05h-22.72V2.17Z"/>
    <path class="st3" d="M668.06,140.49c-11.77,0-20.1-5.34-25.53-15.93l70.34-29.06-2.35-5.97c-4.35-11.77-17.74-33.49-44.99-33.49s-49.61,21.27-49.61,52.59c0,29.51,22.27,52.59,52.14,52.59,24.08,0,38.02-14.76,43.81-23.26l-17.92-11.95c-5.97,8.69-14.12,14.48-25.89,14.48h0ZM666.43,75.77c9.32,0,17.29,4.8,19.92,11.59l-47.53,19.64c0-22.09,15.66-31.23,27.61-31.23Z"/>
  </g>
  <polygon class="st1" points="384.98 279.04 357.59 291 360.5 261.26 340.66 238.9 369.85 232.48 384.98 206.71 400.11 232.48 429.3 238.9 409.46 261.26 412.37 291 384.98 279.04"/>
  <polygon class="st1" points="290.56 279.04 263.17 291 266.08 261.26 246.24 238.9 275.43 232.48 290.56 206.71 305.69 232.48 334.87 238.9 315.04 261.26 317.95 291 290.56 279.04"/>
  <polygon class="st1" points="196.13 279.04 168.75 291 171.66 261.26 151.82 238.9 181.01 232.48 196.13 206.71 211.26 232.48 240.45 238.9 220.61 261.26 223.52 291 196.13 279.04"/>
  <polygon class="st1" points="479.4 279.04 452.01 291 454.92 261.26 435.09 238.9 464.27 232.48 479.4 206.71 494.53 232.48 523.72 238.9 503.88 261.26 506.79 291 479.4 279.04"/>
  <polygon class="st1" points="573.83 279.04 546.44 291 549.35 261.26 529.51 238.9 558.7 232.48 573.83 206.71 588.95 232.48 618.14 238.9 598.3 261.26 601.21 291 573.83 279.04"/>
</svg>