<?xml version="1.0" encoding="UTF-8"?>
<svg id="Layer_3" xmlns="http://www.w3.org/2000/svg" version="1.1" viewBox="0 0 763.92 290.07">
  <!-- Generator: Adobe Illustrator 29.1.0, SVG Export Plug-In . SVG Version: 2.1.0 Build 142)  -->
  <defs>
    <style>
      .st0 {
        fill: #005f86;
      }
    </style>
  </defs>
  <g>
    <path class="st0" d="M478.19,105.83c0-4.05-3.28-7.33-7.33-7.33h-11.78v14.66h11.78c4.05,0,7.33-3.28,7.33-7.33Z"/>
    <path class="st0" d="M570.25,112.81c0-7.9-6.41-14.31-14.31-14.31h-8.79v28.62h8.79c7.9,0,14.31-6.41,14.31-14.31Z"/>
    <path class="st0" d="M335.99,180.48c0-3.01-2.2-5.36-5.72-5.36h-11.08v10.8h11.08c3.52,0,5.72-2.28,5.72-5.44Z"/>
    <path class="st0" d="M332.63,194.81h-13.44v11.53h13.44c3.97,0,6.32-2.28,6.32-5.8,0-3.09-2.2-5.73-6.32-5.73Z"/>
    <path class="st0" d="M707.28,98.5h-8.79v28.62h8.79c7.9,0,14.31-6.41,14.31-14.31s-6.41-14.31-14.31-14.31Z"/>
    <path class="st0" d="M718.92,1H45C20.7,1,1,20.7,1,45v200.07c0,24.3,19.7,44,44,44h673.92c.76,0,1.51-.02,2.26-.06,10.5-.53,20.03-4.74,27.32-11.37,1.04-.95,2.04-1.94,2.98-2.98,7.1-7.81,11.43-18.19,11.43-29.58h0V45c0-24.3-19.7-44-44-44ZM260.69,285.07H45c-22.06,0-40-17.94-40-40V45C5,22.94,22.94,5,45,5h215.69v280.07ZM586.97,88.32h10.19v48.99h-10.19v-48.99ZM536.97,88.32h18.97c13.53,0,24.5,10.97,24.5,24.5s-10.97,24.5-24.5,24.5h-18.97v-48.99ZM494.64,127.12v-38.81h35.95v10.19h-25.76v9.86h22.92v9.11h-22.92v9.65h25.76v10.19h-35.95v-10.19ZM325.43,88.32h9.36l20.71,48.99h-10.19l-4.31-10.19h-21.78l-4.31,10.19h-10.19l20.71-48.99ZM335.35,215.23h-26.58v-48.99h21.78c10.52,0,16.1,5.95,16.1,12.49,0,6.17-3.82,10.29-8.44,11.24,7.67,0,11.4,5.88,11.4,12.05,0,7.35-4.92,13.22-14.25,13.22ZM395.68,195.31c0,11.55-9.36,20.92-20.92,20.92h0c-11.55,0-20.92-9.36-20.92-20.92v-29.08h10.19v29.08c0,5.93,4.8,10.73,10.73,10.73h0c5.93,0,10.73-4.8,10.73-10.73v-29.08h10.19v29.08ZM379.07,127.85c5.07,0,9.55-2.53,12.27-6.38l7.28,7.28c-4.62,5.67-11.66,9.29-19.55,9.29-13.93,0-25.22-11.29-25.22-25.22s11.29-25.22,25.22-25.22c7.89,0,14.93,3.62,19.55,9.29l-7.28,7.28c-2.72-3.85-7.2-6.38-12.27-6.38-8.29,0-15.03,6.74-15.03,15.03s6.74,15.03,15.03,15.03ZM419.19,215.23c-9.1,0-15.65-3.06-20.12-7.53l5.55-7.68c3.34,3.49,8.53,6.4,15.07,6.4,5.55,0,8.25-2.63,8.25-5.34,0-3.56-4.12-4.76-9.6-6.05-7.75-1.78-17.71-3.91-17.71-14.51,0-7.89,6.83-14.29,17.99-14.29,7.54,0,13.8,2.28,18.49,6.61l-5.62,7.39c-3.84-3.56-8.96-5.19-13.58-5.19s-6.97,1.99-6.97,4.84c0,3.2,3.98,4.19,9.46,5.47,7.82,1.78,17.78,4.13,17.78,14.65,0,8.67-6.18,15.22-18.99,15.22ZM425,138.03c-13.93,0-25.22-11.29-25.22-25.22s11.29-25.22,25.22-25.22c7.89,0,14.93,3.62,19.55,9.29l-7.28,7.28c-2.72-3.85-7.2-6.38-12.27-6.38-8.29,0-15.03,6.74-15.03,15.03s6.74,15.03,15.03,15.03c5.07,0,9.55-2.53,12.27-6.38l7.28,7.28c-4.62,5.67-11.66,9.29-19.55,9.29ZM453.99,215.23h-10.19v-48.99h10.19v48.99ZM459.08,137.31h-10.19v-48.99h23.39c9.24,0,16.73,7.49,16.73,16.73,0,6.94-4.23,12.89-10.24,15.42l11.61,16.84h-12.19l-10.71-15.54h-8.4v15.54ZM504.82,215.23h-10.19l-22.18-30.69v30.69h-10.19v-48.99h10.19l22.18,31.21v-31.21h10.19v48.99ZM548.56,176.42h-25.76v9.86h22.92v9.11h-22.92v9.65h25.76v10.19h-35.95v-48.99h35.95v10.19ZM571.82,215.23c-9.1,0-15.65-3.06-20.12-7.53l5.55-7.68c3.34,3.49,8.53,6.4,15.07,6.4,5.55,0,8.25-2.63,8.25-5.34,0-3.56-4.12-4.76-9.6-6.05-7.75-1.78-17.71-3.91-17.71-14.51,0-7.89,6.83-14.29,17.99-14.29,7.54,0,13.8,2.28,18.49,6.61l-5.62,7.39c-3.84-3.56-8.96-5.19-13.58-5.19s-6.97,1.99-6.97,4.84c0,3.2,3.98,4.19,9.46,5.47,7.82,1.78,17.78,4.13,17.78,14.65,0,8.67-6.18,15.22-18.99,15.22ZM610.93,215.23c-9.1,0-15.65-3.06-20.12-7.53l5.55-7.68c3.34,3.49,8.53,6.4,15.07,6.4,5.55,0,8.25-2.63,8.25-5.34,0-3.56-4.12-4.76-9.6-6.05-7.75-1.78-17.71-3.91-17.71-14.51,0-7.89,6.83-14.29,17.99-14.29,7.54,0,13.8,2.28,18.49,6.61l-5.62,7.39c-3.84-3.56-8.96-5.19-13.58-5.19s-6.97,1.99-6.97,4.84c0,3.2,3.98,4.19,9.46,5.47,7.82,1.78,17.78,4.13,17.78,14.65,0,8.67-6.18,15.22-18.99,15.22ZM641.65,98.5h-14.38v38.81h-10.19v-38.81h-14.38v-10.19h38.95v10.19ZM681.93,98.5h-25.76v9.86h22.92v9.11h-22.92v9.65h25.76v10.19h-35.95v-48.99h35.95v10.19ZM707.28,137.31h-18.97v-48.99h18.97c13.53,0,24.5,10.97,24.5,24.5s-10.97,24.5-24.5,24.5Z"/>
    <polygon class="st0" points="330.11 101.35 323.3 117.47 336.92 117.47 330.11 101.35"/>
  </g>
  <g>
    <path class="st0" d="M58.92,266.93v-54.85h24.38c11.77,0,18.03,6.66,18.03,13.98,0,6.91-4.27,11.52-9.45,12.58,8.59,0,12.76,6.58,12.76,13.48,0,8.23-5.51,14.8-15.96,14.8h-29.76ZM70.59,234.12h12.4c3.94,0,6.41-2.55,6.41-6.09s-2.46-6.01-6.41-6.01h-12.4v12.09ZM70.59,256.98h15.05c4.44,0,7.07-2.55,7.07-6.49,0-3.45-2.46-6.41-7.07-6.41h-15.05v12.91Z"/>
    <path class="st0" d="M110.93,266.93v-54.85h24.38c11.77,0,18.03,6.66,18.03,13.98,0,6.91-4.27,11.52-9.45,12.58,8.59,0,12.76,6.58,12.76,13.48,0,8.23-5.51,14.8-15.96,14.8h-29.76ZM122.6,234.12h12.4c3.94,0,6.41-2.55,6.41-6.09s-2.46-6.01-6.41-6.01h-12.4v12.09ZM122.6,256.98h15.05c4.44,0,7.07-2.55,7.07-6.49,0-3.45-2.46-6.41-7.07-6.41h-15.05v12.91Z"/>
    <path class="st0" d="M162.94,266.93v-54.85h24.38c11.77,0,18.03,6.66,18.03,13.98,0,6.91-4.27,11.52-9.45,12.58,8.59,0,12.76,6.58,12.76,13.48,0,8.23-5.51,14.8-15.96,14.8h-29.76ZM174.62,234.12h12.4c3.94,0,6.41-2.55,6.41-6.09s-2.46-6.01-6.41-6.01h-12.4v12.09ZM174.62,256.98h15.05c4.44,0,7.07-2.55,7.07-6.49,0-3.45-2.46-6.41-7.07-6.41h-15.05v12.91Z"/>
    <path class="st0" d="M211.8,255.06c0-6.86,5.52-12.33,12.33-12.33s12.33,5.47,12.33,12.33-5.47,12.33-12.33,12.33-12.33-5.52-12.33-12.33ZM213.66,255.06c0,5.76,4.65,10.47,10.47,10.47s10.47-4.71,10.47-10.47-4.71-10.47-10.47-10.47-10.47,4.65-10.47,10.47ZM227.5,262.15l-3.66-5.58h-2.44v5.58h-1.98v-14.13h5.76c2.5,0,4.59,1.69,4.59,4.3,0,3.14-2.79,4.19-3.61,4.19l3.78,5.64h-2.44ZM221.4,249.77v5h3.78c1.34,0,2.56-.99,2.56-2.44,0-1.57-1.22-2.56-2.56-2.56h-3.78Z"/>
    <polygon class="st0" points="184.02 185.92 180.02 175.12 87.71 175.12 83.71 185.92 108.73 185.92 113.58 202.33 154.15 202.33 159 185.92 184.02 185.92"/>
    <path class="st0" d="M171.71,63.35l-33.36-24.13c-4.66-3.37-5.71-9.88-2.33-14.55l-3.07-2.22-18.24,25.21c-4.19,5.8-6.15,12.53-6.05,19.17.15,9.71,4.72,19.23,13.19,25.35l33.36,24.13c4.66,3.37,2.71,13.88-.67,18.55l3.07,2.22,9.07-12.47,12.17-16.74c4.19-5.8,6.15-12.53,6.05-19.17-.15-9.71-4.72-19.23-13.19-25.35Z"/>
    <path class="st0" d="M140.27,123.86l-21.66-15.67c-3.03-2.19-3.71-6.42-1.52-9.45l-1.99-1.44-11.84,16.37c-2.72,3.76-4,8.13-3.93,12.45.1,6.3,3.07,12.48,8.57,16.46l21.66,15.67c3.03,2.19,1.76,9.02-.43,12.04l1.99,1.44,5.89-8.1,7.9-10.87c2.72-3.76,4-8.13,3.93-12.45-.1-6.3-3.07-12.48-8.57-16.46Z"/>
  </g>
</svg>