<?xml version="1.0" encoding="UTF-8"?>
<svg id="Layer_3" xmlns="http://www.w3.org/2000/svg" version="1.1" viewBox="0 0 763.92 290.07">
  <!-- Generator: Adobe Illustrator 29.1.0, SVG Export Plug-In . SVG Version: 2.1.0 Build 142)  -->
  <defs>
    <style>
      .st0 {
        fill: #005128;
      }

      .st1 {
        fill: #191919;
      }

      .st2 {
        fill: #00b67a;
      }
    </style>
  </defs>
  <path class="st1" d="M202.4,118.44h76.64v14.3h-30.13v80.38h-16.57v-80.38h-30v-14.3h.07ZM275.77,144.56h14.16v13.23h.27c.47-1.87,1.34-3.67,2.61-5.41s2.81-3.41,4.61-4.81c1.8-1.47,3.81-2.61,6.01-3.54,2.2-.87,4.48-1.34,6.75-1.34,1.74,0,3.01.07,3.67.13s1.34.2,2.07.27v14.57c-1.07-.2-2.14-.33-3.27-.47-1.14-.13-2.2-.2-3.27-.2-2.54,0-4.94.53-7.22,1.54s-4.21,2.54-5.88,4.48c-1.67,2-3.01,4.41-4.01,7.35s-1.47,6.28-1.47,10.09v32.61h-15.1v-68.48h.07ZM385.34,213.12h-14.83v-9.55h-.27c-1.87,3.47-4.61,6.21-8.28,8.28-3.67,2.07-7.42,3.14-11.22,3.14-9.02,0-15.57-2.2-19.58-6.68s-6.01-11.22-6.01-20.24v-43.5h15.1v42.03c0,6.01,1.14,10.29,3.47,12.76,2.27,2.47,5.55,3.74,9.69,3.74,3.21,0,5.81-.47,7.95-1.47s3.88-2.27,5.14-3.94c1.34-1.6,2.27-3.61,2.87-5.88.6-2.27.87-4.74.87-7.42v-39.75h15.1v68.48ZM411.06,191.13c.47,4.41,2.14,7.48,5.01,9.29,2.94,1.74,6.41,2.67,10.49,2.67,1.4,0,3.01-.13,4.81-.33s3.54-.67,5.08-1.27c1.6-.6,2.87-1.54,3.94-2.74,1-1.2,1.47-2.74,1.4-4.68-.07-1.94-.8-3.54-2.14-4.74-1.34-1.27-3.01-2.2-5.08-3.01-2.07-.73-4.41-1.4-7.08-1.94-2.67-.53-5.35-1.14-8.08-1.74-2.81-.6-5.55-1.4-8.15-2.27-2.61-.87-4.94-2.07-7.02-3.61-2.07-1.47-3.74-3.41-4.94-5.75-1.27-2.34-1.87-5.21-1.87-8.69,0-3.74.94-6.82,2.74-9.35,1.8-2.54,4.14-4.54,6.88-6.08,2.81-1.54,5.88-2.61,9.29-3.27,3.41-.6,6.68-.94,9.75-.94,3.54,0,6.95.4,10.16,1.14,3.21.73,6.15,1.94,8.75,3.67,2.61,1.67,4.74,3.88,6.48,6.55,1.74,2.67,2.81,5.95,3.27,9.75h-15.77c-.73-3.61-2.34-6.08-4.94-7.28-2.61-1.27-5.61-1.87-8.95-1.87-1.07,0-2.34.07-3.81.27-1.47.2-2.81.53-4.14,1-1.27.47-2.34,1.2-3.27,2.14-.87.94-1.34,2.14-1.34,3.67,0,1.87.67,3.34,1.94,4.48s2.94,2.07,5.01,2.87c2.07.73,4.41,1.4,7.08,1.94,2.67.53,5.41,1.14,8.22,1.74,2.74.6,5.41,1.4,8.08,2.27,2.67.87,5.01,2.07,7.08,3.61,2.07,1.54,3.74,3.41,5.01,5.68s1.94,5.14,1.94,8.49c0,4.08-.94,7.48-2.81,10.36-1.87,2.81-4.28,5.14-7.22,6.88-2.94,1.74-6.28,3.07-9.89,3.88-3.61.8-7.22,1.2-10.76,1.2-4.34,0-8.35-.47-12.03-1.47s-6.88-2.47-9.55-4.41c-2.67-2-4.81-4.48-6.35-7.42-1.54-2.94-2.34-6.48-2.47-10.56h15.23v-.13ZM460.91,144.56h11.43v-20.58h15.1v20.58h13.63v11.29h-13.63v36.61c0,1.6.07,2.94.2,4.14.13,1.14.47,2.14.94,2.94s1.2,1.4,2.2,1.8c1,.4,2.27.6,4.01.6,1.07,0,2.14,0,3.21-.07s2.14-.2,3.21-.47v11.69c-1.67.2-3.34.33-4.88.53-1.6.2-3.21.27-4.88.27-4.01,0-7.22-.4-9.62-1.14-2.41-.73-4.34-1.87-5.68-3.34-1.4-1.47-2.27-3.27-2.81-5.48-.47-2.2-.8-4.74-.87-7.55v-40.42h-11.43v-11.43h-.13ZM511.75,144.56h14.3v9.29h.27c2.14-4.01,5.08-6.82,8.89-8.55s7.88-2.61,12.36-2.61c5.41,0,10.09.94,14.1,2.87,4.01,1.87,7.35,4.48,10.02,7.82s4.61,7.22,5.95,11.63c1.34,4.41,2,9.15,2,14.16,0,4.61-.6,9.09-1.8,13.36-1.2,4.34-3.01,8.15-5.41,11.49s-5.48,5.95-9.22,7.95-8.08,3.01-13.16,3.01c-2.2,0-4.41-.2-6.61-.6-2.2-.4-4.34-1.07-6.35-1.94-2-.87-3.94-2-5.61-3.41-1.74-1.4-3.14-3.01-4.34-4.81h-.27v34.21h-15.1v-93.87ZM564.54,178.91c0-3.07-.4-6.08-1.2-9.02s-2-5.48-3.61-7.75c-1.6-2.27-3.61-4.08-5.95-5.41-2.41-1.34-5.14-2.07-8.22-2.07-6.35,0-11.16,2.2-14.36,6.61-3.21,4.41-4.81,10.29-4.81,17.64,0,3.47.4,6.68,1.27,9.62.87,2.94,2.07,5.48,3.81,7.62,1.67,2.14,3.67,3.81,6.01,5.01,2.34,1.27,5.08,1.87,8.15,1.87,3.47,0,6.35-.73,8.75-2.14,2.41-1.4,4.34-3.27,5.88-5.48,1.54-2.27,2.67-4.81,3.34-7.68.6-2.87.94-5.81.94-8.82h0ZM591.19,118.44h15.1v14.3h-15.1s0-14.3,0-14.3ZM591.19,144.56h15.1v68.55h-15.1v-68.55h0ZM619.79,118.44h15.1v94.68h-15.1v-94.68h0ZM681.19,214.99c-5.48,0-10.36-.94-14.63-2.74-4.28-1.8-7.88-4.34-10.89-7.48-2.94-3.21-5.21-7.02-6.75-11.43-1.54-4.41-2.34-9.29-2.34-14.57s.8-10.02,2.34-14.43c1.54-4.41,3.81-8.22,6.75-11.43,2.94-3.21,6.61-5.68,10.89-7.48,4.28-1.8,9.15-2.74,14.63-2.74s10.36.94,14.63,2.74c4.28,1.8,7.88,4.34,10.89,7.48,2.94,3.21,5.21,7.02,6.75,11.43,1.54,4.41,2.34,9.22,2.34,14.43s-.8,10.16-2.34,14.57-3.81,8.22-6.75,11.43-6.61,5.68-10.89,7.48-9.15,2.74-14.63,2.74h0ZM681.19,203.03c3.34,0,6.28-.73,8.75-2.14,2.47-1.4,4.48-3.27,6.08-5.55,1.6-2.27,2.74-4.88,3.54-7.75.73-2.87,1.14-5.81,1.14-8.82s-.4-5.81-1.14-8.75-1.94-5.48-3.54-7.75c-1.6-2.27-3.61-4.08-6.08-5.48-2.47-1.4-5.41-2.14-8.75-2.14s-6.28.73-8.75,2.14c-2.47,1.4-4.48,3.27-6.08,5.48-1.6,2.27-2.74,4.81-3.54,7.75-.73,2.94-1.14,5.81-1.14,8.75s.4,5.95,1.14,8.82c.73,2.87,1.94,5.48,3.54,7.75,1.6,2.27,3.61,4.14,6.08,5.55,2.47,1.47,5.41,2.14,8.75,2.14h0ZM720.21,144.56h11.43v-20.58h15.1v20.58h13.63v11.29h-13.63v36.61c0,1.6.07,2.94.2,4.14.13,1.14.47,2.14.94,2.94.47.8,1.2,1.4,2.2,1.8,1,.4,2.27.6,4.01.6,1.07,0,2.14,0,3.21-.07,1.07-.07,2.14-.2,3.21-.47v11.69c-1.67.2-3.34.33-4.88.53-1.6.2-3.21.27-4.88.27-4.01,0-7.22-.4-9.62-1.14-2.41-.73-4.34-1.87-5.68-3.34-1.4-1.47-2.27-3.27-2.81-5.48-.47-2.2-.8-4.74-.87-7.55v-40.42h-11.43v-11.43h-.13Z"/>
  <path class="st2" d="M184.77,118.44h-69.22l-21.38-65.88-21.45,65.88-69.22-.07,56.06,40.76-21.45,65.81,56.06-40.69,55.99,40.69-21.38-65.81,55.99-40.69Z"/>
  <path class="st0" d="M133.59,174.03l-4.81-14.9-34.61,25.12,39.42-10.22Z"/>
</svg>